<svg width="130" height="82" viewBox="0 0 130 82" fill="none" xmlns="http://www.w3.org/2000/svg">
<rect width="130" height="82" fill="#FEFEFE"/>
<path d="M61.6818 62L41.3182 41.6364L61.6818 21.2727L65.1818 24.7273L50.7727 39.1364H88.0909V44.1364H50.7727L65.1818 58.5L61.6818 62Z" fill="black"/>
<path d="M61.6818 62L60.9747 62.7071L61.6818 63.4142L62.3889 62.7071L61.6818 62ZM41.3182 41.6364L40.6111 40.9293L39.904 41.6364L40.6111 42.3435L41.3182 41.6364ZM61.6818 21.2727L62.3843 20.561L61.6772 19.8631L60.9747 20.5656L61.6818 21.2727ZM65.1818 24.7273L65.8889 25.4344L66.6007 24.7226L65.8843 24.0156L65.1818 24.7273ZM50.7727 39.1364L50.0656 38.4293L48.3585 40.1364H50.7727V39.1364ZM88.0909 39.1364H89.0909V38.1364H88.0909V39.1364ZM88.0909 44.1364V45.1364H89.0909V44.1364H88.0909ZM50.7727 44.1364V43.1364H48.3531L50.0667 44.8446L50.7727 44.1364ZM65.1818 58.5L65.8889 59.2071L66.5972 58.4989L65.8878 57.7918L65.1818 58.5ZM62.3889 61.2929L42.0253 40.9293L40.6111 42.3435L60.9747 62.7071L62.3889 61.2929ZM42.0253 42.3435L62.3889 21.9798L60.9747 20.5656L40.6111 40.9293L42.0253 42.3435ZM60.9793 21.9844L64.4793 25.439L65.8843 24.0156L62.3843 20.561L60.9793 21.9844ZM64.4747 24.0202L50.0656 38.4293L51.4798 39.8435L65.8889 25.4344L64.4747 24.0202ZM50.7727 40.1364H88.0909V38.1364H50.7727V40.1364ZM87.0909 39.1364V44.1364H89.0909V39.1364H87.0909ZM88.0909 43.1364H50.7727V45.1364H88.0909V43.1364ZM50.0667 44.8446L64.4758 59.2082L65.8878 57.7918L51.4787 43.4281L50.0667 44.8446ZM64.4747 57.7929L60.9747 61.2929L62.3889 62.7071L65.8889 59.2071L64.4747 57.7929Z" fill="black"/>
</svg>
