<svg width="125" height="82" viewBox="0 0 125 82" fill="none" xmlns="http://www.w3.org/2000/svg">
<rect width="125" height="82" fill="#FEFEFE"/>
<path d="M81.0909 30H75.4545C75.1212 28.3788 74.5379 26.9545 73.7045 25.7273C72.8864 24.5 71.8864 23.4697 70.7045 22.6364C69.5379 21.7879 68.2424 21.1515 66.8182 20.7273C65.3939 20.303 63.9091 20.0909 62.3636 20.0909C59.5455 20.0909 56.9924 20.803 54.7045 22.2273C52.4318 23.6515 50.6212 25.75 49.2727 28.5227C47.9394 31.2955 47.2727 34.697 47.2727 38.7273C47.2727 42.7576 47.9394 46.1591 49.2727 48.9318C50.6212 51.7045 52.4318 53.803 54.7045 55.2273C56.9924 56.6515 59.5455 57.3636 62.3636 57.3636C63.9091 57.3636 65.3939 57.1515 66.8182 56.7273C68.2424 56.303 69.5379 55.6742 70.7045 54.8409C71.8864 53.9924 72.8864 52.9545 73.7045 51.7273C74.5379 50.4848 75.1212 49.0606 75.4545 47.4545H81.0909C80.6667 49.8333 79.8939 51.9621 78.7727 53.8409C77.6515 55.7197 76.2576 57.3182 74.5909 58.6364C72.9242 59.9394 71.053 60.9318 68.9773 61.6136C66.9167 62.2955 64.7121 62.6364 62.3636 62.6364C58.3939 62.6364 54.8636 61.6667 51.7727 59.7273C48.6818 57.7879 46.25 55.0303 44.4773 51.4545C42.7045 47.8788 41.8182 43.6364 41.8182 38.7273C41.8182 33.8182 42.7045 29.5758 44.4773 26C46.25 22.4242 48.6818 19.6667 51.7727 17.7273C54.8636 15.7879 58.3939 14.8182 62.3636 14.8182C64.7121 14.8182 66.9167 15.1591 68.9773 15.8409C71.053 16.5227 72.9242 17.5227 74.5909 18.8409C76.2576 20.1439 77.6515 21.7348 78.7727 23.6136C79.8939 25.4773 80.6667 27.6061 81.0909 30Z" fill="black"/>
<path d="M81.0909 30V31H82.2837L82.0756 29.8255L81.0909 30ZM75.4545 30L74.475 30.2014L74.6392 31H75.4545V30ZM73.7045 25.7273L72.8725 26.282L72.8772 26.289L73.7045 25.7273ZM70.7045 22.6364L70.1164 23.4451L70.1223 23.4494L70.1283 23.4536L70.7045 22.6364ZM66.8182 20.7273L66.5327 21.6857L66.8182 20.7273ZM54.7045 22.2273L54.1761 21.3783L54.1735 21.3799L54.7045 22.2273ZM49.2727 28.5227L48.3734 28.0854L48.3715 28.0894L49.2727 28.5227ZM49.2727 48.9318L48.3715 49.3652L48.3734 49.3692L49.2727 48.9318ZM54.7045 55.2273L54.1735 56.0746L54.1761 56.0762L54.7045 55.2273ZM66.8182 56.7273L66.5327 55.7689L66.8182 56.7273ZM70.7045 54.8409L71.2858 55.6546L71.2878 55.6532L70.7045 54.8409ZM73.7045 51.7273L72.8741 51.1702L72.8725 51.1726L73.7045 51.7273ZM75.4545 47.4545V46.4545H74.6408L74.4754 47.2513L75.4545 47.4545ZM81.0909 47.4545L82.0754 47.6301L82.285 46.4545H81.0909V47.4545ZM78.7727 53.8409L77.914 53.3284V53.3285L78.7727 53.8409ZM74.5909 58.6364L75.2068 59.4242L75.2113 59.4207L74.5909 58.6364ZM68.9773 61.6136L68.6652 60.6636L68.6631 60.6643L68.9773 61.6136ZM51.7727 59.7273L51.2412 60.5743L51.7727 59.7273ZM44.4773 51.4545L45.3732 51.0104L44.4773 51.4545ZM44.4773 26L43.5813 25.5558L44.4773 26ZM68.9773 15.8409L68.6631 16.7903L68.6652 16.791L68.9773 15.8409ZM74.5909 18.8409L73.9706 19.6253L73.975 19.6287L74.5909 18.8409ZM78.7727 23.6136L77.914 24.1261L77.9159 24.1292L78.7727 23.6136ZM81.0909 29H75.4545V31H81.0909V29ZM76.4341 29.7986C76.0773 28.0633 75.4473 26.5137 74.5319 25.1655L72.8772 26.289C73.6285 27.3954 74.1652 28.6942 74.475 30.2014L76.4341 29.7986ZM74.5366 25.1726C73.6515 23.8449 72.5654 22.7249 71.2808 21.8191L70.1283 23.4536C71.2073 24.2145 72.1213 25.1551 72.8725 26.282L74.5366 25.1726ZM71.2927 21.8276C70.0316 20.9105 68.6332 20.2245 67.1037 19.7689L66.5327 21.6857C67.8516 22.0785 69.0442 22.6653 70.1164 23.4451L71.2927 21.8276ZM67.1037 19.7689C65.5831 19.316 64.0019 19.0909 62.3636 19.0909V21.0909C63.8163 21.0909 65.2048 21.2901 66.5327 21.6857L67.1037 19.7689ZM62.3636 19.0909C59.3676 19.0909 56.63 19.8507 54.1761 21.3783L55.233 23.0762C57.3549 21.7553 59.7233 21.0909 62.3636 21.0909V19.0909ZM54.1735 21.3799C51.7194 22.9178 49.7913 25.1699 48.3734 28.0854L50.172 28.9601C51.4511 26.3301 53.1442 24.3852 55.2356 23.0746L54.1735 21.3799ZM48.3715 28.0894C46.9563 31.0325 46.2727 34.5915 46.2727 38.7273H48.2727C48.2727 34.8024 48.9225 31.5585 50.1739 28.9561L48.3715 28.0894ZM46.2727 38.7273C46.2727 42.863 46.9563 46.4221 48.3715 49.3652L50.1739 48.4984C48.9225 45.8961 48.2727 42.6521 48.2727 38.7273H46.2727ZM48.3734 49.3692C49.7913 52.2846 51.7194 54.5367 54.1735 56.0746L55.2356 54.3799C53.1442 53.0693 51.4511 51.1245 50.172 48.4945L48.3734 49.3692ZM54.1761 56.0762C56.63 57.6038 59.3676 58.3636 62.3636 58.3636V56.3636C59.7233 56.3636 57.3549 55.6992 55.233 54.3783L54.1761 56.0762ZM62.3636 58.3636C64.0019 58.3636 65.5831 58.1386 67.1037 57.6857L66.5327 55.7689C65.2048 56.1644 63.8163 56.3636 62.3636 56.3636V58.3636ZM67.1037 57.6857C68.6299 57.231 70.0259 56.5545 71.2858 55.6546L70.1233 54.0272C69.0498 54.7939 67.855 55.375 66.5327 55.7689L67.1037 57.6857ZM71.2878 55.6532C72.5687 54.7336 73.6526 53.608 74.5366 52.282L72.8725 51.1726C72.1201 52.3011 71.204 53.2513 70.1213 54.0286L71.2878 55.6532ZM74.535 52.2843C75.4469 50.9247 76.0766 49.378 76.4337 47.6578L74.4754 47.2513C74.1658 48.7432 73.6288 50.045 72.8741 51.1702L74.535 52.2843ZM75.4545 48.4545H81.0909V46.4545H75.4545V48.4545ZM80.1064 47.279C79.7012 49.5512 78.9672 51.5637 77.914 53.3284L79.6314 54.3534C80.8207 52.3605 81.6321 50.1155 82.0754 47.6301L80.1064 47.279ZM77.914 53.3285C76.8532 55.106 75.5391 56.6115 73.9706 57.852L75.2113 59.4207C76.9761 58.0249 78.4498 56.3334 79.6314 54.3534L77.914 53.3285ZM73.975 57.8486C72.4024 59.078 70.6347 60.0167 68.6652 60.6636L69.2893 62.5637C71.4714 61.847 73.446 60.8008 75.2068 59.4242L73.975 57.8486ZM68.6631 60.6643C66.7119 61.3099 64.6141 61.6364 62.3636 61.6364V63.6364C64.8101 63.6364 67.1215 63.281 69.2914 62.563L68.6631 60.6643ZM62.3636 61.6364C58.5648 61.6364 55.2219 60.7109 52.3042 58.8802L51.2412 60.5743C54.5053 62.6224 58.2231 63.6364 62.3636 63.6364V61.6364ZM52.3042 58.8802C49.3841 57.048 47.0719 54.4368 45.3732 51.0104L43.5813 51.8987C45.4281 55.6238 47.9795 58.5278 51.2412 60.5743L52.3042 58.8802ZM45.3732 51.0104C43.6829 47.6008 42.8182 43.5171 42.8182 38.7273H40.8182C40.8182 43.7557 41.7262 48.1568 43.5813 51.8987L45.3732 51.0104ZM42.8182 38.7273C42.8182 33.9375 43.6829 29.8538 45.3732 26.4442L43.5813 25.5558C41.7262 29.2978 40.8182 33.6989 40.8182 38.7273H42.8182ZM45.3732 26.4442C47.0719 23.0177 49.3841 20.4065 52.3042 18.5743L51.2412 16.8802C47.9795 18.9268 45.4281 21.8308 43.5813 25.5558L45.3732 26.4442ZM52.3042 18.5743C55.2219 16.7436 58.5648 15.8182 62.3636 15.8182V13.8182C58.2231 13.8182 54.5053 14.8321 51.2412 16.8802L52.3042 18.5743ZM62.3636 15.8182C64.6141 15.8182 66.7119 16.1446 68.6631 16.7903L69.2914 14.8915C67.1215 14.1735 64.8101 13.8182 62.3636 13.8182V15.8182ZM68.6652 16.791C70.6325 17.4371 72.3987 18.3821 73.9706 19.6252L75.2113 18.0566C73.4498 16.6634 71.4736 15.6083 69.2893 14.8908L68.6652 16.791ZM73.975 19.6287C75.5411 20.8531 76.8539 22.3496 77.914 24.1261L79.6314 23.1012C78.4492 21.1201 76.9741 19.4347 75.2068 18.0531L73.975 19.6287ZM77.9159 24.1292C78.967 25.8763 79.7009 27.887 80.1063 30.1745L82.0756 29.8255C81.6325 27.3252 80.8209 25.0783 79.6296 23.0981L77.9159 24.1292Z" fill="black"/>
</svg>
