<svg width="87" height="81" viewBox="0 0 87 81" fill="none" xmlns="http://www.w3.org/2000/svg">
<rect width="87" height="80.8844" fill="#F17128"/>
<path d="M44.4931 49.9804C40.3653 50.0229 37.05 52.986 37.0872 56.5996C37.1244 60.2132 40.4999 63.1074 44.6277 63.0649C48.7555 63.0224 52.0708 60.0593 52.0336 56.4457C51.9964 52.8322 48.6209 49.9379 44.4931 49.9804ZM44.291 30.3537C48.4188 30.3112 51.7341 27.3481 51.6969 23.7345C51.6597 20.121 48.2841 17.2267 44.1563 17.2692C40.0285 17.3117 36.7132 20.2748 36.7504 23.8884C36.7876 27.502 40.1632 30.3962 44.291 30.3537ZM66.7612 35.0296L21.9218 35.4912C19.8585 35.5124 18.2003 36.9945 18.2189 38.8008L18.2525 42.0719C18.2711 43.8781 19.9595 45.3258 22.0228 45.3045L66.8623 44.843C68.9256 44.8217 70.5838 43.3397 70.5652 41.5334L70.5315 38.2623C70.5129 36.456 68.8246 35.0084 66.7612 35.0296Z" fill="white"/>
</svg>
