<svg width="120" height="40" viewBox="0 0 120 40" fill="none" xmlns="http://www.w3.org/2000/svg">
<path opacity="0.5" d="M0 20C0 10.5719 0 5.85786 2.92893 2.92893C5.85786 0 10.5719 0 20 0H60V40H20C10.5719 40 5.85786 40 2.92893 37.0711C0 34.1421 0 29.4281 0 20V20Z" fill="black"/>
<g opacity="0.6">
<path d="M30 26C32.7614 26 35 23.7614 35 21C35 18.2386 32.7614 16 30 16C27.2386 16 25 18.2386 25 21C25 23.7614 27.2386 26 30 26Z" stroke="white" stroke-width="2" stroke-linecap="round" stroke-linejoin="round"/>
<path d="M30 10V12" stroke="white" stroke-width="2" stroke-linecap="round" stroke-linejoin="round"/>
<path d="M30 30V32" stroke="white" stroke-width="2" stroke-linecap="round" stroke-linejoin="round"/>
<path d="M22.22 13.22L23.64 14.64" stroke="white" stroke-width="2" stroke-linecap="round" stroke-linejoin="round"/>
<path d="M36.36 27.36L37.78 28.78" stroke="white" stroke-width="2" stroke-linecap="round" stroke-linejoin="round"/>
<path d="M19 21H21" stroke="white" stroke-width="2" stroke-linecap="round" stroke-linejoin="round"/>
<path d="M39 21H41" stroke="white" stroke-width="2" stroke-linecap="round" stroke-linejoin="round"/>
<path d="M22.22 28.78L23.64 27.36" stroke="white" stroke-width="2" stroke-linecap="round" stroke-linejoin="round"/>
<path d="M36.36 14.64L37.78 13.22" stroke="white" stroke-width="2" stroke-linecap="round" stroke-linejoin="round"/>
</g>
<path d="M60 0H100C109.428 0 114.142 0 117.071 2.92893C120 5.85786 120 10.5719 120 20V20C120 29.4281 120 34.1421 117.071 37.0711C114.142 40 109.428 40 100 40H60V0Z" fill="#DB6F0D"/>
<path d="M98.742 22.045C98.0643 22.225 97.3662 22.3161 96.665 22.316C94.53 22.316 92.525 21.486 91.019 19.98C90.0301 18.9854 89.3191 17.7489 88.9569 16.3938C88.5948 15.0387 88.5941 13.6124 88.955 12.257C89.0001 12.0875 88.9998 11.9092 88.9542 11.7399C88.9086 11.5706 88.8192 11.4162 88.6951 11.2923C88.571 11.1684 88.4165 11.0793 88.2471 11.034C88.0777 10.9887 87.8994 10.9887 87.73 11.034C86.0332 11.4862 84.4851 12.3766 83.241 13.616C79.343 17.514 79.343 23.859 83.241 27.759C84.1675 28.6907 85.2696 29.4294 86.4835 29.9323C87.6974 30.4353 88.999 30.6924 90.313 30.689C91.6266 30.6927 92.9279 30.4357 94.1415 29.9329C95.3551 29.4302 96.4569 28.6916 97.383 27.76C98.6233 26.5157 99.5142 24.9668 99.966 23.269C100.011 23.0996 100.011 22.9214 99.9649 22.7522C99.9193 22.583 99.8301 22.4287 99.7062 22.3048C99.5823 22.1809 99.428 22.0917 99.2588 22.0461C99.0896 22.0005 98.9114 22.0001 98.742 22.045V22.045ZM95.97 26.346C95.229 27.0911 94.3475 27.6818 93.3767 28.084C92.4058 28.4862 91.3649 28.6918 90.314 28.689C89.2628 28.6916 88.2215 28.4858 87.2503 28.0835C86.2792 27.6811 85.3974 27.0903 84.656 26.345C81.538 23.226 81.538 18.15 84.656 15.031C85.2585 14.4292 85.9541 13.9284 86.716 13.548C86.6045 14.9871 86.805 16.4332 87.3037 17.7877C87.8025 19.1422 88.5878 20.373 89.606 21.396C90.6268 22.4174 91.8573 23.2049 93.2123 23.704C94.5673 24.2032 96.0146 24.4021 97.454 24.287C97.0715 25.0476 96.5706 25.7426 95.97 26.346V26.346Z" fill="white"/>
</svg>
