<svg width="87" height="82" viewBox="0 0 87 82" fill="none" xmlns="http://www.w3.org/2000/svg">
<rect x="0.000183105" width="87" height="82" fill="#F17128"/>
<path d="M50.0431 40.5L62.0635 28.4796C63.299 27.2441 63.299 25.2409 62.0635 24.0053L59.9949 21.9368C58.7594 20.7012 56.7562 20.7012 55.5206 21.9368L43.5003 33.9572L31.4799 21.9368C30.2443 20.7012 28.2411 20.7012 27.0056 21.9368L24.9371 24.0053C23.7015 25.2409 23.7015 27.2441 24.9371 28.4796L36.9574 40.5L24.9371 52.5204C23.7015 53.7559 23.7015 55.7591 24.9371 56.9947L27.0056 59.0632C28.2411 60.2988 30.2443 60.2988 31.4799 59.0632L43.5003 47.0428L55.5206 59.0632C56.7562 60.2988 58.7594 60.2988 59.9949 59.0632L62.0635 56.9947C63.299 55.7591 63.299 53.7559 62.0635 52.5204L50.0431 40.5Z" fill="#F4F4F4"/>
</svg>
