<svg width="87" height="82" viewBox="0 0 87 82" fill="none" xmlns="http://www.w3.org/2000/svg">
<rect width="87" height="82" fill="#BAB7B7"/>
<path d="M51 66.6237H28.5V57.5051H51V48.3865H36C32.0218 48.3865 28.2064 47.4258 25.3934 45.7158C22.5804 44.0057 21 41.6863 21 39.2679V30.1493C21 27.7309 22.5804 25.4116 25.3934 23.7015C28.2064 21.9915 32.0218 21.0307 36 21.0307H51C54.9782 21.0307 58.7936 21.9915 61.6066 23.7015C64.4196 25.4116 66 27.7309 66 30.1493V57.5051C66 59.9235 64.4196 62.2429 61.6066 63.9529C58.7936 65.663 54.9782 66.6237 51 66.6237ZM36 30.1493V39.2679H51V30.1493H36Z" fill="black"/>
</svg>
