<svg width="87" height="82" viewBox="0 0 87 82" fill="none" xmlns="http://www.w3.org/2000/svg">
<rect width="87" height="82" fill="#BAB7B7"/>
<path d="M51 20.0176H36C32.0218 20.0176 28.2064 20.9783 25.3934 22.6883C22.5804 24.3984 21 26.7178 21 29.1362V56.4919C21 58.9103 22.5804 61.2297 25.3934 62.9398C28.2064 64.6498 32.0218 65.6105 36 65.6105H51C54.9782 65.6105 58.7936 64.6498 61.6066 62.9398C64.4196 61.2297 66 58.9103 66 56.4919V29.1362C66 26.7178 64.4196 24.3984 61.6066 22.6883C58.7936 20.9783 54.9782 20.0176 51 20.0176ZM51 29.1362V38.2548H36V29.1362H51ZM36 56.4919V47.3734H51V56.4919H36Z" fill="black"/>
</svg>
