<svg width="87" height="82" viewBox="0 0 87 82" fill="none" xmlns="http://www.w3.org/2000/svg">
<rect width="87" height="82" fill="#FEFEFE"/>
<path d="M51 63.593H36C32.0218 63.593 28.2064 62.6323 25.3934 60.9222C22.5804 59.2121 21 56.8928 21 54.4744V27.1186C21 24.7002 22.5804 22.3808 25.3934 20.6708C28.2064 18.9607 32.0218 18 36 18H51C54.9782 18 58.7936 18.9607 61.6066 20.6708C64.4196 22.3808 66 24.7002 66 27.1186V54.4744C66 56.8928 64.4196 59.2121 61.6066 60.9222C58.7936 62.6323 54.9782 63.593 51 63.593ZM36 27.1186V54.4744H51V27.1186H36Z" fill="black"/>
</svg>
