<svg width="87" height="82" viewBox="0 0 87 82" fill="none" xmlns="http://www.w3.org/2000/svg">
<rect width="87" height="82" fill="#FEFEFE"/>
<path d="M50 68.0864H35C31.0218 68.0864 27.2064 67.1257 24.3934 65.4156C21.5804 63.7055 20 61.3862 20 58.9678V31.612C20 29.1936 21.5804 26.8743 24.3934 25.1642C27.2064 23.4541 31.0218 22.4934 35 22.4934H57.5V31.612H35V40.7306H50C53.9782 40.7306 57.7936 41.6913 60.6066 43.4014C63.4196 45.1114 65 47.4308 65 49.8492V58.9678C65 61.3862 63.4196 63.7055 60.6066 65.4156C57.7936 67.1257 53.9782 68.0864 50 68.0864ZM35 49.8492V58.9678H50V49.8492H35Z" fill="black"/>
</svg>
