<svg width="87" height="82" viewBox="0 0 87 82" fill="none" xmlns="http://www.w3.org/2000/svg">
<rect width="87" height="82" fill="#FEFEFE"/>
<path d="M42 32.5935C37.4526 32.5935 33.717 36.1593 33.717 40.4994C33.717 44.8401 37.4526 48.4059 42 48.4059C46.3923 48.4059 49.9939 45.0707 50.2368 40.9328C50.2671 40.7901 50.2826 40.645 50.283 40.4994C50.2828 40.3532 50.2673 40.2073 50.2368 40.064C49.9926 35.9262 46.391 32.5935 42 32.5935ZM42 37.0035C44.0506 37.0035 45.663 38.542 45.663 40.4994C45.663 42.4568 44.0506 43.9959 42 43.9959C39.9494 43.9959 38.337 42.4568 38.337 40.4994C38.337 38.542 39.9494 37.0035 42 37.0035Z" fill="black"/>
</svg>
