<svg width="87" height="82" viewBox="0 0 87 82" fill="none" xmlns="http://www.w3.org/2000/svg">
<rect width="87" height="82" fill="#5866E1"/>
<g clip-path="url(#clip0_1_77)">
<path d="M47.4726 39.4084L47.3723 23.563C47.3619 21.9342 46.0334 20.5952 44.4048 20.5722L41.6782 20.5336C40.0496 20.5106 38.7378 21.8122 38.7481 23.4409L38.8484 39.2863L23.0043 39.0621C21.3757 39.0391 20.0638 40.3407 20.0742 41.9694L20.0914 44.6962C20.1017 46.3249 21.4303 47.6639 23.0589 47.687L38.903 47.9112L39.0034 63.7566C39.0137 65.3853 40.3423 66.7243 41.9709 66.7474L44.6974 66.7859C46.326 66.809 47.6379 65.5073 47.6275 63.8786L47.5272 48.0332L63.3713 48.2574C64.9999 48.2805 66.3118 46.9788 66.3015 45.3501L66.2842 42.6234C66.2739 40.9946 64.9453 39.6556 63.3167 39.6326L47.4726 39.4084Z" fill="#F4F4F4"/>
</g>
<defs>
<clipPath id="clip0_1_77">
<rect x="13.5304" y="43.2401" width="41.5143" height="42.3735" transform="rotate(-44.776 13.5304 43.2401)" fill="white"/>
</clipPath>
</defs>
</svg>
