<svg width="50" height="50" viewBox="0 0 50 50" fill="none" xmlns="http://www.w3.org/2000/svg">
<circle cx="25" cy="25" r="25" fill="#D9D3D3"/>
<g clip-path="url(#clip0_13_2)">
<path d="M9 24.5C8.99925 22.353 9.63451 20.2658 10.8072 18.5622C11.9799 16.8586 13.6244 15.634 15.4856 15.0784C17.3468 14.5227 19.3205 14.6672 21.1004 15.4893C22.8804 16.3114 24.367 17.7652 25.3297 19.625H39.625C39.7687 19.6247 39.9111 19.656 40.044 19.7171C40.1768 19.7781 40.2976 19.8678 40.3994 19.9809L43.6806 23.6371C43.7825 23.7504 43.8633 23.8848 43.9184 24.0329C43.9736 24.181 44.002 24.3397 44.002 24.5C44.002 24.6603 43.9736 24.8191 43.9184 24.9671C43.8633 25.1152 43.7825 25.2497 43.6806 25.3629L40.3994 29.0191C40.2978 29.1326 40.1771 29.2227 40.0442 29.2841C39.9113 29.3456 39.7689 29.3772 39.625 29.3772C39.4811 29.3772 39.3387 29.3456 39.2058 29.2841C39.0729 29.2227 38.9522 29.1326 38.8506 29.0191L37.4375 27.4421L36.0244 29.0191C35.9228 29.1326 35.8021 29.2227 35.6692 29.2841C35.5363 29.3456 35.3939 29.3772 35.25 29.3772C35.1061 29.3772 34.9637 29.3456 34.8308 29.2841C34.6979 29.2227 34.5772 29.1326 34.4756 29.0191L33.0625 27.4421L31.6494 29.0191C31.5478 29.1326 31.4271 29.2227 31.2942 29.2841C31.1613 29.3456 31.0189 29.3772 30.875 29.3772C30.7311 29.3772 30.5887 29.3456 30.4558 29.2841C30.3229 29.2227 30.2022 29.1326 30.1006 29.0191L28.6875 27.4421L27.2744 29.0191C27.1726 29.1322 27.0518 29.2219 26.919 29.283C26.7861 29.344 26.6437 29.3753 26.5 29.375H25.3297C24.367 31.2349 22.8804 32.6886 21.1004 33.5107C19.3205 34.3328 17.3468 34.4773 15.4856 33.9217C13.6244 33.366 11.9799 32.1414 10.8072 30.4378C9.63451 28.7343 8.99925 26.647 9 24.5V24.5ZM17.75 17.1875C16.5756 17.188 15.4229 17.5397 14.412 18.2058C13.4012 18.8719 12.5693 19.828 12.0031 20.9745C11.4369 22.121 11.1571 23.4157 11.1931 24.7237C11.229 26.0317 11.5792 27.305 12.2073 28.4107C12.8353 29.5164 13.7182 30.4141 14.7637 31.0101C15.8092 31.6061 16.9791 31.8785 18.1513 31.799C19.3235 31.7195 20.4551 31.2909 21.428 30.558C22.4009 29.8251 23.1795 28.8147 23.6825 27.6322C23.7713 27.4244 23.9111 27.2489 24.0857 27.126C24.2603 27.003 24.4625 26.9377 24.6691 26.9375H26.0472L27.9131 24.8559C28.0147 24.7424 28.1354 24.6523 28.2683 24.5909C28.4012 24.5295 28.5436 24.4978 28.6875 24.4978C28.8314 24.4978 28.9738 24.5295 29.1067 24.5909C29.2396 24.6523 29.3603 24.7424 29.4619 24.8559L30.875 26.433L32.2881 24.8559C32.3897 24.7424 32.5104 24.6523 32.6433 24.5909C32.7762 24.5295 32.9186 24.4978 33.0625 24.4978C33.2064 24.4978 33.3488 24.5295 33.4817 24.5909C33.6146 24.6523 33.7353 24.7424 33.8369 24.8559L35.25 26.433L36.6631 24.8559C36.7647 24.7424 36.8854 24.6523 37.0183 24.5909C37.1512 24.5295 37.2936 24.4978 37.4375 24.4978C37.5814 24.4978 37.7238 24.5295 37.8567 24.5909C37.9896 24.6523 38.1103 24.7424 38.2119 24.8559L39.625 26.433L41.3597 24.5L39.1722 22.0625H24.6691C24.4625 22.0623 24.2603 21.997 24.0857 21.874C23.9111 21.7511 23.7713 21.5756 23.6825 21.3678C23.1503 20.1167 22.3102 19.0596 21.26 18.3196C20.2098 17.5796 18.9926 17.187 17.75 17.1875V17.1875Z" fill="black"/>
<path d="M17.75 24.5C17.75 25.1465 17.5195 25.7665 17.1093 26.2236C16.6991 26.6807 16.1427 26.9375 15.5625 26.9375C14.9823 26.9375 14.4259 26.6807 14.0157 26.2236C13.6055 25.7665 13.375 25.1465 13.375 24.5C13.375 23.8535 13.6055 23.2335 14.0157 22.7764C14.4259 22.3193 14.9823 22.0625 15.5625 22.0625C16.1427 22.0625 16.6991 22.3193 17.1093 22.7764C17.5195 23.2335 17.75 23.8535 17.75 24.5Z" fill="black"/>
</g>
<defs>
<clipPath id="clip0_13_2">
<rect width="35" height="39" fill="white" transform="translate(9 5)"/>
</clipPath>
</defs>
</svg>
