<svg width="179" height="66" viewBox="0 0 179 66" fill="none" xmlns="http://www.w3.org/2000/svg">
<rect width="179" height="66" fill="#D9D9D9"/>
<path d="M44.233 23V12.8182H47.7926C48.5019 12.8182 49.0869 12.9408 49.5476 13.1861C50.0083 13.428 50.3513 13.7545 50.5767 14.1655C50.8021 14.5732 50.9148 15.0256 50.9148 15.5227C50.9148 15.9602 50.8369 16.3215 50.6811 16.6065C50.5286 16.8916 50.3265 17.117 50.0746 17.2827C49.826 17.4484 49.5559 17.571 49.2642 17.6506V17.75C49.5758 17.7699 49.889 17.8793 50.2038 18.0781C50.5187 18.277 50.7822 18.562 50.9943 18.9332C51.2064 19.3045 51.3125 19.7585 51.3125 20.2955C51.3125 20.8059 51.1965 21.2649 50.9645 21.6726C50.7325 22.0803 50.3662 22.4034 49.8658 22.642C49.3653 22.8807 48.714 23 47.9119 23H44.233ZM45.4659 21.9062H47.9119C48.7173 21.9062 49.2891 21.7505 49.6271 21.4389C49.9685 21.1241 50.1392 20.7429 50.1392 20.2955C50.1392 19.9508 50.0514 19.6326 49.8757 19.3409C49.7 19.0459 49.4498 18.8106 49.125 18.6349C48.8002 18.456 48.4157 18.3665 47.9716 18.3665H45.4659V21.9062ZM45.4659 17.2926H47.7528C48.1241 17.2926 48.4588 17.2197 48.7571 17.0739C49.0587 16.928 49.2973 16.7225 49.473 16.4574C49.652 16.1922 49.7415 15.8807 49.7415 15.5227C49.7415 15.0753 49.5857 14.6958 49.2741 14.3842C48.9626 14.0694 48.4688 13.9119 47.7926 13.9119H45.4659V17.2926ZM53.1793 23V15.3636H54.3129V16.517H54.3924C54.5316 16.1392 54.7835 15.8326 55.1481 15.5973C55.5127 15.362 55.9237 15.2443 56.381 15.2443C56.4672 15.2443 56.5749 15.246 56.7042 15.2493C56.8335 15.2526 56.9312 15.2576 56.9975 15.2642V16.4574C56.9577 16.4474 56.8666 16.4325 56.7241 16.4126C56.5849 16.3894 56.4374 16.3778 56.2816 16.3778C55.9104 16.3778 55.579 16.4557 55.2873 16.6115C54.9989 16.764 54.7702 16.9761 54.6012 17.2479C54.4355 17.5163 54.3526 17.8229 54.3526 18.1676V23H53.1793ZM60.6355 23.179C60.1516 23.179 59.7124 23.0878 59.318 22.9055C58.9236 22.7199 58.6104 22.4531 58.3784 22.1051C58.1464 21.7538 58.0304 21.3295 58.0304 20.8324C58.0304 20.3949 58.1165 20.0402 58.2889 19.7685C58.4612 19.4934 58.6916 19.2779 58.9799 19.1222C59.2683 18.9664 59.5865 18.8504 59.9345 18.7741C60.2858 18.6946 60.6388 18.6316 60.9934 18.5852C61.4574 18.5256 61.8336 18.4808 62.122 18.451C62.4136 18.4179 62.6258 18.3632 62.7583 18.2869C62.8942 18.2107 62.9622 18.0781 62.9622 17.8892V17.8494C62.9622 17.3589 62.8279 16.9777 62.5595 16.706C62.2943 16.4342 61.8916 16.2983 61.3514 16.2983C60.7913 16.2983 60.3521 16.4209 60.0339 16.6662C59.7157 16.9115 59.492 17.1733 59.3627 17.4517L58.2491 17.054C58.448 16.59 58.7131 16.2287 59.0446 15.9702C59.3793 15.7083 59.7439 15.526 60.1383 15.4233C60.536 15.3172 60.9271 15.2642 61.3116 15.2642C61.5569 15.2642 61.8386 15.294 62.1568 15.3537C62.4783 15.41 62.7882 15.5277 63.0865 15.7067C63.3881 15.8857 63.6383 16.1558 63.8372 16.517C64.036 16.8783 64.1355 17.3622 64.1355 17.9688V23H62.9622V21.9659H62.9025C62.823 22.1316 62.6904 22.3089 62.5048 22.4979C62.3192 22.6868 62.0723 22.8475 61.764 22.9801C61.4558 23.1127 61.0796 23.179 60.6355 23.179ZM60.8145 22.125C61.2785 22.125 61.6696 22.0339 61.9877 21.8516C62.3092 21.6693 62.5512 21.4339 62.7136 21.1456C62.8793 20.8572 62.9622 20.554 62.9622 20.2358V19.1619C62.9125 19.2216 62.8031 19.2763 62.6341 19.326C62.4683 19.3724 62.2761 19.4138 62.0574 19.4503C61.8419 19.4834 61.6315 19.5133 61.426 19.5398C61.2238 19.563 61.0597 19.5829 60.9338 19.5994C60.6288 19.6392 60.3438 19.7038 60.0787 19.7933C59.8168 19.8795 59.6047 20.0104 59.4423 20.1861C59.2832 20.3584 59.2037 20.5937 59.2037 20.892C59.2037 21.2997 59.3545 21.608 59.6561 21.8168C59.961 22.0223 60.3471 22.125 60.8145 22.125ZM67.4503 18.4062V23H66.277V15.3636H67.4105V16.5568H67.5099C67.6889 16.169 67.9607 15.8575 68.3253 15.6222C68.6899 15.3835 69.1605 15.2642 69.7372 15.2642C70.2543 15.2642 70.7067 15.3703 71.0945 15.5824C71.4822 15.7912 71.7839 16.1094 71.9993 16.5369C72.2147 16.9612 72.3224 17.4981 72.3224 18.1477V23H71.1491V18.2273C71.1491 17.6274 70.9934 17.16 70.6818 16.8253C70.3703 16.4872 69.9427 16.3182 69.3991 16.3182C69.0246 16.3182 68.6899 16.3994 68.3949 16.5618C68.1032 16.7242 67.8729 16.9612 67.7038 17.2727C67.5348 17.5843 67.4503 17.9621 67.4503 18.4062ZM77.35 23.1591C76.7136 23.1591 76.1518 22.9983 75.6646 22.6768C75.1774 22.352 74.7962 21.8946 74.5211 21.3047C74.246 20.7114 74.1085 20.0104 74.1085 19.2017C74.1085 18.3996 74.246 17.7036 74.5211 17.1136C74.7962 16.5237 75.179 16.0679 75.6696 15.7464C76.1601 15.425 76.7269 15.2642 77.3699 15.2642C77.867 15.2642 78.2598 15.3471 78.5481 15.5128C78.8398 15.6752 79.0618 15.8608 79.2143 16.0696C79.3701 16.2751 79.4911 16.4441 79.5772 16.5767H79.6767V12.8182H80.85V23H79.7164V21.8267H79.5772C79.4911 21.9659 79.3684 22.1416 79.2093 22.3537C79.0502 22.5625 78.8232 22.7498 78.5282 22.9155C78.2333 23.0779 77.8405 23.1591 77.35 23.1591ZM77.5091 22.1051C77.9797 22.1051 78.3774 21.9825 78.7022 21.7372C79.027 21.4886 79.274 21.1456 79.443 20.7081C79.612 20.2673 79.6966 19.7585 79.6966 19.1818C79.6966 18.6117 79.6137 18.1129 79.448 17.6854C79.2823 17.2545 79.037 16.9197 78.7122 16.6811C78.3874 16.4392 77.9863 16.3182 77.5091 16.3182C77.0119 16.3182 76.5976 16.4458 76.2662 16.701C75.938 16.9529 75.6911 17.2959 75.5254 17.7301C75.363 18.161 75.2818 18.6449 75.2818 19.1818C75.2818 19.7254 75.3646 20.2192 75.5304 20.6634C75.6994 21.1042 75.948 21.4555 76.2761 21.7173C76.6075 21.9759 77.0185 22.1051 77.5091 22.1051ZM84.0169 23.0795C83.7716 23.0795 83.5611 22.9917 83.3855 22.8161C83.2098 22.6404 83.122 22.4299 83.122 22.1847C83.122 21.9394 83.2098 21.7289 83.3855 21.5533C83.5611 21.3776 83.7716 21.2898 84.0169 21.2898C84.2621 21.2898 84.4726 21.3776 84.6483 21.5533C84.8239 21.7289 84.9118 21.9394 84.9118 22.1847C84.9118 22.3471 84.8703 22.4962 84.7875 22.6321C84.7079 22.768 84.6002 22.8774 84.4643 22.9602C84.3317 23.0398 84.1826 23.0795 84.0169 23.0795ZM84.0169 17.4119C83.7716 17.4119 83.5611 17.3241 83.3855 17.1484C83.2098 16.9728 83.122 16.7623 83.122 16.517C83.122 16.2718 83.2098 16.0613 83.3855 15.8857C83.5611 15.71 83.7716 15.6222 84.0169 15.6222C84.2621 15.6222 84.4726 15.71 84.6483 15.8857C84.8239 16.0613 84.9118 16.2718 84.9118 16.517C84.9118 16.6795 84.8703 16.8286 84.7875 16.9645C84.7079 17.1004 84.6002 17.2098 84.4643 17.2926C84.3317 17.3722 84.1826 17.4119 84.0169 17.4119Z" fill="black"/>
</svg>
