<svg width="51" height="47" viewBox="0 0 51 47" fill="none" xmlns="http://www.w3.org/2000/svg">
<path d="M51 23.5C51 28.1479 49.5045 32.6913 46.7025 36.5559C43.9005 40.4204 39.9179 43.4325 35.2584 45.2112C30.5989 46.9898 25.4717 47.4552 20.5252 46.5484C15.5787 45.6417 11.035 43.4035 7.46879 40.117C3.90255 36.8305 1.47391 32.6432 0.489987 28.0846C-0.493935 23.5261 0.0110495 18.801 1.94108 14.5069C3.87112 10.2129 7.13952 6.54268 11.333 3.96046C15.5264 1.37825 20.4566 0 25.5 0C32.263 0 38.749 2.47589 43.5312 6.88299C48.3134 11.2901 51 17.2674 51 23.5V23.5ZM40.0714 21.8214H17.9411L28.1046 12.4097L25.5 10.0714L10.9286 23.5L25.5 36.9286L28.1046 34.5332L17.9411 25.1786H40.0714V21.8214Z" fill="white"/>
</svg>
