<svg width="50" height="50" viewBox="0 0 50 50" fill="none" xmlns="http://www.w3.org/2000/svg">
<circle cx="25" cy="25" r="25" fill="#7DEE61"/>
<g clip-path="url(#clip0_19_6)">
<path d="M27.8687 10V28.5059H22.1313V10H27.8687ZM39.1431 14.6855C42.7624 17.581 45 21.5817 45 26C45 34.8366 36.0457 42 25 42C13.9543 42 5 34.8366 5 26C5 21.5817 7.23766 17.581 10.8569 14.6855L14.8853 17.9082C12.2966 19.9791 10.6958 22.8403 10.6958 26C10.6958 32.3195 17.1007 37.4434 25 37.4434C32.8994 37.4434 39.3042 32.3195 39.3042 26C39.3042 22.8403 37.7034 19.9791 35.1147 17.9082L39.1431 14.6855Z" fill="black"/>
</g>
<defs>
<clipPath id="clip0_19_6">
<rect width="40" height="32" fill="white" transform="matrix(-1 0 0 1 45 10)"/>
</clipPath>
</defs>
</svg>
