<svg width="70" height="69" viewBox="0 0 70 69" fill="none" xmlns="http://www.w3.org/2000/svg">
<path d="M20.52 61.717L27.547 54.517C25.0917 53.9837 22.7528 53.0115 20.643 51.647L20.52 61.717ZM43.48 6.284L36.455 13.483C38.9104 14.0166 41.2492 14.9892 43.359 16.354L43.48 6.284M11.484 38.454L4.283 45.479L14.353 45.357C12.9886 43.2476 12.0167 40.909 11.484 38.454M52.516 29.547L59.717 22.52L49.647 22.643C51.0114 24.7527 51.9833 27.0916 52.516 29.547M14.354 22.642L4.284 22.519L11.485 29.546C12.0166 27.0903 12.9886 24.7512 14.354 22.642M49.646 45.358L59.716 45.48L52.515 38.454C51.9832 40.9096 51.0112 43.2487 49.646 45.358M27.547 13.483L20.52 6.283L20.643 16.353C22.7528 14.9885 25.0917 14.0163 27.547 13.483M36.453 54.517L43.48 61.716L43.357 51.647C41.247 53.0111 38.9082 53.9833 36.453 54.517M14.752 45.962L10.785 55.213L20.037 51.248C17.9748 49.8145 16.1851 48.0244 14.752 45.962M49.248 22.039L53.213 12.787L43.963 16.752C46.0252 18.1859 47.8149 19.9763 49.248 22.039M11 34C11 32.722 11.133 31.476 11.352 30.259L2 33.999L11.352 37.739C11.1234 36.5057 11.0056 35.2543 11 34V34ZM62 34L52.648 30.259C52.867 31.476 53 32.722 53 34C53 35.279 52.867 36.525 52.648 37.741L62 34ZM20.039 16.751L10.787 12.786L14.752 22.038C16.1863 19.9757 17.9767 18.1854 20.039 16.751M43.961 51.248L53.213 55.213L49.248 45.962C47.8139 48.0243 46.0235 49.8143 43.961 51.248M35.74 13.352L32 4L28.26 13.352C29.475 13.133 30.721 13 32 13C33.279 13 34.525 13.133 35.74 13.352ZM28.26 54.648L32 64L35.74 54.648C34.525 54.867 33.279 55 32 55C30.721 55 29.475 54.867 28.26 54.648" fill="black"/>
<path d="M32 53C42.4934 53 51 44.4934 51 34C51 23.5066 42.4934 15 32 15C21.5066 15 13 23.5066 13 34C13 44.4934 21.5066 53 32 53Z" fill="black"/>
<rect width="69.1948" height="69" fill="#D9D9D9"/>
<path d="M25.52 61.717L32.547 54.517C30.0917 53.9837 27.7528 53.0115 25.643 51.647L25.52 61.717ZM48.48 6.284L41.455 13.483C43.9104 14.0166 46.2492 14.9892 48.359 16.354L48.48 6.284M16.484 38.454L9.283 45.479L19.353 45.357C17.9886 43.2476 17.0167 40.909 16.484 38.454M57.516 29.547L64.717 22.52L54.647 22.643C56.0114 24.7527 56.9833 27.0916 57.516 29.547M19.354 22.642L9.284 22.519L16.485 29.546C17.0166 27.0903 17.9886 24.7512 19.354 22.642M54.646 45.358L64.716 45.48L57.515 38.454C56.9832 40.9096 56.0112 43.2487 54.646 45.358M32.547 13.483L25.52 6.283L25.643 16.353C27.7528 14.9885 30.0917 14.0163 32.547 13.483M41.453 54.517L48.48 61.716L48.357 51.647C46.247 53.0111 43.9082 53.9833 41.453 54.517M19.752 45.962L15.785 55.213L25.037 51.248C22.9748 49.8145 21.1851 48.0244 19.752 45.962M54.248 22.039L58.213 12.787L48.963 16.752C51.0252 18.1859 52.8149 19.9763 54.248 22.039M16 34C16 32.722 16.133 31.476 16.352 30.259L7 33.999L16.352 37.739C16.1234 36.5057 16.0056 35.2543 16 34V34ZM67 34L57.648 30.259C57.867 31.476 58 32.722 58 34C58 35.279 57.867 36.525 57.648 37.741L67 34ZM25.039 16.751L15.787 12.786L19.752 22.038C21.1863 19.9757 22.9767 18.1854 25.039 16.751M48.961 51.248L58.213 55.213L54.248 45.962C52.8139 48.0243 51.0235 49.8143 48.961 51.248M40.74 13.352L37 4L33.26 13.352C34.475 13.133 35.721 13 37 13C38.279 13 39.525 13.133 40.74 13.352ZM33.26 54.648L37 64L40.74 54.648C39.525 54.867 38.279 55 37 55C35.721 55 34.475 54.867 33.26 54.648" fill="black"/>
<path d="M37 53C47.4934 53 56 44.4934 56 34C56 23.5066 47.4934 15 37 15C26.5066 15 18 23.5066 18 34C18 44.4934 26.5066 53 37 53Z" fill="black"/>
</svg>
