<svg width="50" height="79" viewBox="0 0 50 79" fill="none" xmlns="http://www.w3.org/2000/svg">
<circle cx="25" cy="54" r="25" fill="#F8F8F8"/>
<path d="M12.9 59.0593C10.5725 59.0593 9.28254 57.8984 9.16504 56.3937H10.7975C10.96 57.2084 11.7875 57.7665 13.025 57.7665C14.335 57.7665 15.1 57.1873 15.1 56.3065C15.1 55.593 14.5925 55.2068 13.5075 54.9596L11.8675 54.5734C10.3425 54.2272 9.42254 53.3724 9.42254 52.0349C9.42254 50.3723 10.915 49.2467 13.0325 49.2467C15.165 49.2467 16.4975 50.3653 16.6225 51.8064H15.01C14.85 51.0529 14.13 50.5301 13.0175 50.5301C11.8375 50.5301 11.0925 51.1094 11.0925 51.943C11.0925 52.5576 11.5825 52.9721 12.475 53.1723L14.11 53.5514C15.7925 53.9376 16.76 54.6982 16.76 56.1653C16.76 57.8984 15.325 59.057 12.9 59.057V59.0593ZM21.4675 50.7939V58.871H19.805V50.7939H16.8825V49.4516H24.3975V50.7892H21.4675V50.7939Z" fill="black"/>
<path fill-rule="evenodd" clip-rule="evenodd" d="M32.6126 53.5255V54.8065C32.6126 57.4698 31.0225 59.057 28.46 59.057C25.895 59.057 24.3 57.4698 24.3 54.8065V53.5255C24.3 50.8504 25.895 49.2703 28.46 49.2703C31.0225 49.2703 32.61 50.8574 32.61 53.5255H32.6126ZM30.9276 54.8136V53.5113C30.9276 51.5639 29.8725 50.6055 28.46 50.6055C27.03 50.6055 25.985 51.5639 25.985 53.5113V54.8136C25.985 56.7681 27.03 57.7265 28.46 57.7265C29.8725 57.7265 30.9276 56.7657 30.9276 54.8136ZM33.8026 49.4539H37.6401C39.6901 49.4539 40.9301 50.7491 40.9301 52.4964C40.9301 54.2555 39.6775 55.5318 37.6275 55.5318H35.4651V58.8709H33.8026V49.4539V49.4539ZM37.3926 54.2484C38.5501 54.2484 39.2301 53.6079 39.2301 52.4964C39.2301 51.3849 38.5501 50.7515 37.3926 50.7515H35.4575V54.2484H37.3926Z" fill="black"/>
<path fill-rule="evenodd" clip-rule="evenodd" d="M17.2325 35.3226C16.9016 35.3226 16.5843 35.4463 16.35 35.6664L5.365 46.0135C5.13133 46.2342 5.00007 46.5331 5 46.8448V61.4778C5.00007 61.7894 5.13133 62.0884 5.365 62.309L16.35 72.6562C16.5843 72.8763 16.9016 72.9999 17.2325 73H32.7675C33.0984 72.9999 33.4157 72.8763 33.65 72.6562L44.635 62.309C44.8687 62.0884 44.9999 61.7894 45 61.4778V46.8448C44.9999 46.5331 44.8687 46.2342 44.635 46.0135L33.65 35.6664C33.4157 35.4463 33.0984 35.3226 32.7675 35.3226H17.2325ZM7.5 47.3322L17.75 37.6774H32.25L42.5 47.3322V60.9903L32.25 70.6451H17.75L7.5 60.9903V47.3322Z" fill="black"/>
</svg>
