<svg width="50" height="50" viewBox="0 0 50 50" fill="none" xmlns="http://www.w3.org/2000/svg">
<circle cx="25" cy="25" r="25" fill="#7DEE61"/>
<g clip-path="url(#clip0_19_2)">
<path d="M7 27.5C6.99925 25.353 7.63451 23.2658 8.8072 21.5622C9.97989 19.8586 11.6244 18.634 13.4856 18.0784C15.3468 17.5227 17.3205 17.6672 19.1004 18.4893C20.8804 19.3114 22.367 20.7652 23.3297 22.625H37.625C37.7687 22.6247 37.9111 22.656 38.044 22.7171C38.1768 22.7781 38.2976 22.8678 38.3994 22.9809L41.6806 26.6371C41.7825 26.7504 41.8633 26.8848 41.9184 27.0329C41.9736 27.181 42.002 27.3397 42.002 27.5C42.002 27.6603 41.9736 27.8191 41.9184 27.9671C41.8633 28.1152 41.7825 28.2497 41.6806 28.3629L38.3994 32.0191C38.2978 32.1326 38.1771 32.2227 38.0442 32.2841C37.9113 32.3456 37.7689 32.3772 37.625 32.3772C37.4811 32.3772 37.3387 32.3456 37.2058 32.2841C37.0729 32.2227 36.9522 32.1326 36.8506 32.0191L35.4375 30.4421L34.0244 32.0191C33.9228 32.1326 33.8021 32.2227 33.6692 32.2841C33.5363 32.3456 33.3939 32.3772 33.25 32.3772C33.1061 32.3772 32.9637 32.3456 32.8308 32.2841C32.6979 32.2227 32.5772 32.1326 32.4756 32.0191L31.0625 30.4421L29.6494 32.0191C29.5478 32.1326 29.4271 32.2227 29.2942 32.2841C29.1613 32.3456 29.0189 32.3772 28.875 32.3772C28.7311 32.3772 28.5887 32.3456 28.4558 32.2841C28.3229 32.2227 28.2022 32.1326 28.1006 32.0191L26.6875 30.4421L25.2744 32.0191C25.1726 32.1322 25.0518 32.2219 24.919 32.283C24.7861 32.344 24.6437 32.3753 24.5 32.375H23.3297C22.367 34.2349 20.8804 35.6886 19.1004 36.5107C17.3205 37.3328 15.3468 37.4773 13.4856 36.9217C11.6244 36.366 9.97989 35.1414 8.8072 33.4378C7.63451 31.7343 6.99925 29.647 7 27.5V27.5ZM15.75 20.1875C14.5756 20.188 13.4229 20.5397 12.412 21.2058C11.4012 21.8719 10.5693 22.828 10.0031 23.9745C9.43686 25.121 9.15714 26.4157 9.19306 27.7237C9.22898 29.0317 9.57924 30.305 10.2073 31.4107C10.8353 32.5164 11.7182 33.4141 12.7637 34.0101C13.8092 34.6061 14.9791 34.8785 16.1513 34.799C17.3235 34.7195 18.4551 34.2909 19.428 33.558C20.4009 32.8251 21.1795 31.8147 21.6825 30.6322C21.7713 30.4244 21.9111 30.2489 22.0857 30.126C22.2603 30.003 22.4625 29.9377 22.6691 29.9375H24.0472L25.9131 27.8559C26.0147 27.7424 26.1354 27.6523 26.2683 27.5909C26.4012 27.5295 26.5436 27.4978 26.6875 27.4978C26.8314 27.4978 26.9738 27.5295 27.1067 27.5909C27.2396 27.6523 27.3603 27.7424 27.4619 27.8559L28.875 29.433L30.2881 27.8559C30.3897 27.7424 30.5104 27.6523 30.6433 27.5909C30.7762 27.5295 30.9186 27.4978 31.0625 27.4978C31.2064 27.4978 31.3488 27.5295 31.4817 27.5909C31.6146 27.6523 31.7353 27.7424 31.8369 27.8559L33.25 29.433L34.6631 27.8559C34.7647 27.7424 34.8854 27.6523 35.0183 27.5909C35.1512 27.5295 35.2936 27.4978 35.4375 27.4978C35.5814 27.4978 35.7238 27.5295 35.8567 27.5909C35.9896 27.6523 36.1103 27.7424 36.2119 27.8559L37.625 29.433L39.3597 27.5L37.1722 25.0625H22.6691C22.4625 25.0623 22.2603 24.997 22.0857 24.874C21.9111 24.7511 21.7713 24.5756 21.6825 24.3678C21.1503 23.1167 20.3102 22.0596 19.26 21.3196C18.2098 20.5796 16.9926 20.187 15.75 20.1875V20.1875Z" fill="black"/>
<path d="M15.75 27.5C15.75 28.1465 15.5195 28.7665 15.1093 29.2236C14.6991 29.6807 14.1427 29.9375 13.5625 29.9375C12.9823 29.9375 12.4259 29.6807 12.0157 29.2236C11.6055 28.7665 11.375 28.1465 11.375 27.5C11.375 26.8535 11.6055 26.2335 12.0157 25.7764C12.4259 25.3193 12.9823 25.0625 13.5625 25.0625C14.1427 25.0625 14.6991 25.3193 15.1093 25.7764C15.5195 26.2335 15.75 26.8535 15.75 27.5Z" fill="black"/>
</g>
<defs>
<clipPath id="clip0_19_2">
<rect width="35" height="39" fill="white" transform="translate(7 8)"/>
</clipPath>
</defs>
</svg>
