<svg width="179" height="66" viewBox="0 0 179 66" fill="none" xmlns="http://www.w3.org/2000/svg">
<rect width="179" height="66" fill="#D9D9D9"/>
<path d="M40.4261 16H39.1932C39.1203 15.6454 38.9927 15.3338 38.8104 15.0653C38.6314 14.7969 38.4126 14.5715 38.1541 14.3892C37.8989 14.2036 37.6155 14.0644 37.304 13.9716C36.9924 13.8788 36.6676 13.8324 36.3295 13.8324C35.7131 13.8324 35.1546 13.9882 34.6541 14.2997C34.157 14.6113 33.7609 15.0703 33.4659 15.6768C33.1742 16.2834 33.0284 17.0275 33.0284 17.9091C33.0284 18.7907 33.1742 19.5348 33.4659 20.1413C33.7609 20.7479 34.157 21.2069 34.6541 21.5185C35.1546 21.83 35.7131 21.9858 36.3295 21.9858C36.6676 21.9858 36.9924 21.9394 37.304 21.8466C37.6155 21.7538 37.8989 21.6162 38.1541 21.4339C38.4126 21.2483 38.6314 21.0213 38.8104 20.7528C38.9927 20.4811 39.1203 20.1695 39.1932 19.8182H40.4261C40.3333 20.3385 40.1643 20.8042 39.919 21.2152C39.6738 21.6262 39.3688 21.9759 39.0043 22.2642C38.6397 22.5492 38.2304 22.7663 37.7763 22.9155C37.3255 23.0646 36.8433 23.1392 36.3295 23.1392C35.4612 23.1392 34.6889 22.9271 34.0128 22.5028C33.3366 22.0786 32.8047 21.4754 32.4169 20.6932C32.0291 19.911 31.8352 18.983 31.8352 17.9091C31.8352 16.8352 32.0291 15.9072 32.4169 15.125C32.8047 14.3428 33.3366 13.7396 34.0128 13.3153C34.6889 12.8911 35.4612 12.679 36.3295 12.679C36.8433 12.679 37.3255 12.7536 37.7763 12.9027C38.2304 13.0518 38.6397 13.2706 39.0043 13.5589C39.3688 13.844 39.6738 14.192 39.919 14.603C40.1643 15.0107 40.3333 15.4763 40.4261 16ZM45.3617 23.1591C44.6723 23.1591 44.0674 22.995 43.5471 22.6669C43.03 22.3388 42.6257 21.8797 42.334 21.2898C42.0456 20.6998 41.9015 20.0104 41.9015 19.2216C41.9015 18.4261 42.0456 17.7318 42.334 17.1385C42.6257 16.5452 43.03 16.0845 43.5471 15.7564C44.0674 15.4283 44.6723 15.2642 45.3617 15.2642C46.0511 15.2642 46.6543 15.4283 47.1713 15.7564C47.6917 16.0845 48.0961 16.5452 48.3844 17.1385C48.6761 17.7318 48.8219 18.4261 48.8219 19.2216C48.8219 20.0104 48.6761 20.6998 48.3844 21.2898C48.0961 21.8797 47.6917 22.3388 47.1713 22.6669C46.6543 22.995 46.0511 23.1591 45.3617 23.1591ZM45.3617 22.1051C45.8854 22.1051 46.3162 21.9709 46.6543 21.7024C46.9924 21.4339 47.2426 21.081 47.405 20.6435C47.5674 20.206 47.6486 19.732 47.6486 19.2216C47.6486 18.7112 47.5674 18.2356 47.405 17.7947C47.2426 17.3539 46.9924 16.9976 46.6543 16.7259C46.3162 16.4541 45.8854 16.3182 45.3617 16.3182C44.838 16.3182 44.4071 16.4541 44.0691 16.7259C43.731 16.9976 43.4808 17.3539 43.3184 17.7947C43.156 18.2356 43.0748 18.7112 43.0748 19.2216C43.0748 19.732 43.156 20.206 43.3184 20.6435C43.4808 21.081 43.731 21.4339 44.0691 21.7024C44.4071 21.9709 44.838 22.1051 45.3617 22.1051ZM51.7862 12.8182V23H50.6129V12.8182H51.7862ZM57.0375 23.1591C56.3481 23.1591 55.7432 22.995 55.2228 22.6669C54.7058 22.3388 54.3014 21.8797 54.0098 21.2898C53.7214 20.6998 53.5772 20.0104 53.5772 19.2216C53.5772 18.4261 53.7214 17.7318 54.0098 17.1385C54.3014 16.5452 54.7058 16.0845 55.2228 15.7564C55.7432 15.4283 56.3481 15.2642 57.0375 15.2642C57.7269 15.2642 58.3301 15.4283 58.8471 15.7564C59.3675 16.0845 59.7718 16.5452 60.0602 17.1385C60.3519 17.7318 60.4977 18.4261 60.4977 19.2216C60.4977 20.0104 60.3519 20.6998 60.0602 21.2898C59.7718 21.8797 59.3675 22.3388 58.8471 22.6669C58.3301 22.995 57.7269 23.1591 57.0375 23.1591ZM57.0375 22.1051C57.5611 22.1051 57.992 21.9709 58.3301 21.7024C58.6681 21.4339 58.9184 21.081 59.0808 20.6435C59.2432 20.206 59.3244 19.732 59.3244 19.2216C59.3244 18.7112 59.2432 18.2356 59.0808 17.7947C58.9184 17.3539 58.6681 16.9976 58.3301 16.7259C57.992 16.4541 57.5611 16.3182 57.0375 16.3182C56.5138 16.3182 56.0829 16.4541 55.7449 16.7259C55.4068 16.9976 55.1565 17.3539 54.9941 17.7947C54.8317 18.2356 54.7505 18.7112 54.7505 19.2216C54.7505 19.732 54.8317 20.206 54.9941 20.6435C55.1565 21.081 55.4068 21.4339 55.7449 21.7024C56.0829 21.9709 56.5138 22.1051 57.0375 22.1051ZM62.2887 23V15.3636H63.4222V16.517H63.5018C63.641 16.1392 63.8929 15.8326 64.2575 15.5973C64.622 15.362 65.033 15.2443 65.4904 15.2443C65.5766 15.2443 65.6843 15.246 65.8136 15.2493C65.9428 15.2526 66.0406 15.2576 66.1069 15.2642V16.4574C66.0671 16.4474 65.976 16.4325 65.8335 16.4126C65.6942 16.3894 65.5468 16.3778 65.391 16.3778C65.0198 16.3778 64.6883 16.4557 64.3967 16.6115C64.1083 16.764 63.8796 16.9761 63.7106 17.2479C63.5449 17.5163 63.462 17.8229 63.462 18.1676V23H62.2887ZM68.3528 23.0795C68.1075 23.0795 67.8971 22.9917 67.7214 22.8161C67.5458 22.6404 67.4579 22.4299 67.4579 22.1847C67.4579 21.9394 67.5458 21.7289 67.7214 21.5533C67.8971 21.3776 68.1075 21.2898 68.3528 21.2898C68.5981 21.2898 68.8085 21.3776 68.9842 21.5533C69.1599 21.7289 69.2477 21.9394 69.2477 22.1847C69.2477 22.3471 69.2063 22.4962 69.1234 22.6321C69.0439 22.768 68.9361 22.8774 68.8002 22.9602C68.6677 23.0398 68.5185 23.0795 68.3528 23.0795ZM68.3528 17.4119C68.1075 17.4119 67.8971 17.3241 67.7214 17.1484C67.5458 16.9728 67.4579 16.7623 67.4579 16.517C67.4579 16.2718 67.5458 16.0613 67.7214 15.8857C67.8971 15.71 68.1075 15.6222 68.3528 15.6222C68.5981 15.6222 68.8085 15.71 68.9842 15.8857C69.1599 16.0613 69.2477 16.2718 69.2477 16.517C69.2477 16.6795 69.2063 16.8286 69.1234 16.9645C69.0439 17.1004 68.9361 17.2098 68.8002 17.2926C68.6677 17.3722 68.5185 17.4119 68.3528 17.4119Z" fill="black"/>
</svg>
