<svg width="75" height="69" viewBox="0 0 75 69" fill="none" xmlns="http://www.w3.org/2000/svg">
<rect width="69.1948" height="69" fill="#D9D9D9"/>
<g clip-path="url(#clip0_10_314)">
<path d="M28.0303 51.75C28.0303 52.9875 29.0754 54 30.3528 54H39.6428C40.9202 54 41.9653 52.9875 41.9653 51.75V49.5H28.0303V51.75ZM44.2879 41.22V42.75C44.2879 43.9875 43.2427 45 41.9653 45H28.0303C26.7529 45 25.7078 43.9875 25.7078 42.75V37.665C21.504 34.8075 18.7402 30.105 18.7402 24.75C18.7402 16.0425 26.0097 9 34.9978 9C38.83 9 42.3369 10.2825 45.1007 12.375C39.1783 14.7825 34.9978 20.4075 34.9978 27C34.9978 33.2775 38.8067 38.6775 44.2879 41.22ZM62.6821 26.865L59.3842 24.8175L56.1327 27L57.0617 23.2875L53.9727 20.97L57.8745 20.7225L59.1751 17.1L60.6383 20.655L64.5401 20.745L61.5209 23.175L62.6821 26.865M59.1287 33.75C54.7392 38.8575 46.68 38.6775 42.4763 33.6375C37.3203 27.2925 40.9434 18 48.9329 16.515C49.7225 16.4025 50.4193 17.1675 50.0941 17.9325C49.049 20.8125 49.2116 24.0975 50.907 26.9325C51.6975 28.2824 52.7899 29.4438 54.1041 30.3315C55.4182 31.2192 56.9208 31.8106 58.5016 32.0625C59.3145 32.175 59.6629 33.165 59.1287 33.75V33.75Z" fill="black"/>
</g>
<defs>
<clipPath id="clip0_10_314">
<rect width="55.7403" height="54" fill="white" transform="translate(19)"/>
</clipPath>
</defs>
</svg>
