<svg width="720" height="260" viewBox="0 0 720 260" fill="none" xmlns="http://www.w3.org/2000/svg">
<g clip-path="url(#clip0_13_49)">
<path fill-rule="evenodd" clip-rule="evenodd" d="M-1.5 192.5V123.5L12.5291 112.5V180.5L23.552 171.5V139H30.5666V104.5H37.0802V139H42.5916V171.5H49.1051V159H54.6166V84L74.6582 104.5V146L93.1967 131V182H103.719V159H113.739V139L125.764 131L137.288 139V159L154.825 171.5V182H160.336V154H165.347V123.5H178.875V139H195.409V84L212.444 66V154L225.472 139V99H230.983V56H239.501V99H244.511V146H251.025V123.5H259.041V30.5L278.081 56V104.5L296.619 88.5V159H305.137V131H314.156V104.5L328.686 84L343.717 104.5V131L363.759 139V80H382.297V131H393.32V180.5H400.335V165H419.875V123.5L437.913 112.5V180.5L453.445 171.5V139H458.957V104.5H464.468V139H469.478V171.5H478.998V154H488.518V88.5L503.549 104.5V154H510.063V139L522.088 131V165H541.127V146L555.658 131L571.691 146V165L589.227 171.5V123.5H606.764V165H622.296V180.5H633.319V88.5H646.346V112.5H659.874V123.5H664.383V76H684.425V123.5H693.444V139H702.964V66H716.492V182H720.5V261H-0.998959V193.12L-1.5 192.5Z" fill="#4F6D7A" fill-opacity="0.25"/>
</g>
<defs>
<clipPath id="clip0_13_49">
<rect width="720" height="260" fill="white"/>
</clipPath>
</defs>
</svg>
