<svg width="735" height="14" viewBox="0 0 735 14" fill="none" xmlns="http://www.w3.org/2000/svg">
<line x1="0.5" y1="14" x2="0.5" stroke="#923A3A"/>
<line x1="86.5" y1="14" x2="86.5" stroke="#923A3A"/>
<line x1="173.5" y1="14" x2="173.5" stroke="#923A3A"/>
<line x1="260.5" y1="14" x2="260.5" stroke="#923A3A"/>
<line x1="347.5" y1="14" x2="347.5" stroke="#923A3A"/>
<line x1="435.5" y1="14" x2="435.5" stroke="#923A3A"/>
<line x1="522.5" y1="14" x2="522.5" stroke="#923A3A"/>
<line x1="610.5" y1="14" x2="610.5" stroke="#923A3A"/>
<line x1="694.5" y1="14" x2="694.5" stroke="#923A3A"/>
<line x1="6.5" y1="14" x2="6.5" stroke="#923A3A"/>
<line x1="92.5" y1="14" x2="92.5" stroke="#923A3A"/>
<line x1="179.5" y1="14" x2="179.5" stroke="#923A3A"/>
<line x1="266.5" y1="14" x2="266.5" stroke="#923A3A"/>
<line x1="353.5" y1="14" x2="353.5" stroke="#923A3A"/>
<line x1="441.5" y1="14" x2="441.5" stroke="#923A3A"/>
<line x1="528.5" y1="14" x2="528.5" stroke="#923A3A"/>
<line x1="616.5" y1="14" x2="616.5" stroke="#923A3A"/>
<line x1="700.5" y1="14" x2="700.5" stroke="#923A3A"/>
<line x1="12.5" y1="14" x2="12.5" stroke="#923A3A"/>
<line x1="98.5" y1="14" x2="98.5" stroke="#923A3A"/>
<line x1="185.5" y1="14" x2="185.5" stroke="#923A3A"/>
<line x1="272.5" y1="14" x2="272.5" stroke="#923A3A"/>
<line x1="359.5" y1="14" x2="359.5" stroke="#923A3A"/>
<line x1="447.5" y1="14" x2="447.5" stroke="#923A3A"/>
<line x1="534.5" y1="14" x2="534.5" stroke="#923A3A"/>
<line x1="622.5" y1="14" x2="622.5" stroke="#923A3A"/>
<line x1="706.5" y1="14" x2="706.5" stroke="#923A3A"/>
<line x1="19.5" y1="14" x2="19.5" stroke="#923A3A"/>
<line x1="105.5" y1="14" x2="105.5" stroke="#923A3A"/>
<line x1="192.5" y1="14" x2="192.5" stroke="#923A3A"/>
<line x1="279.5" y1="14" x2="279.5" stroke="#923A3A"/>
<line x1="366.5" y1="14" x2="366.5" stroke="#923A3A"/>
<line x1="454.5" y1="14" x2="454.5" stroke="#923A3A"/>
<line x1="541.5" y1="14" x2="541.5" stroke="#923A3A"/>
<line x1="629.5" y1="14" x2="629.5" stroke="#923A3A"/>
<line x1="713.5" y1="14" x2="713.5" stroke="#923A3A"/>
<line x1="26.5" y1="14" x2="26.5" stroke="#923A3A"/>
<line x1="112.5" y1="14" x2="112.5" stroke="#923A3A"/>
<line x1="199.5" y1="14" x2="199.5" stroke="#923A3A"/>
<line x1="286.5" y1="14" x2="286.5" stroke="#923A3A"/>
<line x1="373.5" y1="14" x2="373.5" stroke="#923A3A"/>
<line x1="461.5" y1="14" x2="461.5" stroke="#923A3A"/>
<line x1="548.5" y1="14" x2="548.5" stroke="#923A3A"/>
<line x1="636.5" y1="14" x2="636.5" stroke="#923A3A"/>
<line x1="720.5" y1="14" x2="720.5" stroke="#923A3A"/>
<line x1="33.5" y1="14" x2="33.5" stroke="#923A3A"/>
<line x1="119.5" y1="14" x2="119.5" stroke="#923A3A"/>
<line x1="206.5" y1="14" x2="206.5" stroke="#923A3A"/>
<line x1="293.5" y1="14" x2="293.5" stroke="#923A3A"/>
<line x1="380.5" y1="14" x2="380.5" stroke="#923A3A"/>
<line x1="468.5" y1="14" x2="468.5" stroke="#923A3A"/>
<line x1="555.5" y1="14" x2="555.5" stroke="#923A3A"/>
<line x1="643.5" y1="14" x2="643.5" stroke="#923A3A"/>
<line x1="727.5" y1="14" x2="727.5" stroke="#923A3A"/>
<line x1="40.5" y1="14" x2="40.5" stroke="#923A3A"/>
<line x1="126.5" y1="14" x2="126.5" stroke="#923A3A"/>
<line x1="213.5" y1="14" x2="213.5" stroke="#923A3A"/>
<line x1="300.5" y1="14" x2="300.5" stroke="#923A3A"/>
<line x1="387.5" y1="14" x2="387.5" stroke="#923A3A"/>
<line x1="475.5" y1="14" x2="475.5" stroke="#923A3A"/>
<line x1="562.5" y1="14" x2="562.5" stroke="#923A3A"/>
<line x1="650.5" y1="14" x2="650.5" stroke="#923A3A"/>
<line x1="734.5" y1="14" x2="734.5" stroke="#923A3A"/>
<line x1="48.5" y1="14" x2="48.5" stroke="#923A3A"/>
<line x1="134.5" y1="14" x2="134.5" stroke="#923A3A"/>
<line x1="221.5" y1="14" x2="221.5" stroke="#923A3A"/>
<line x1="308.5" y1="14" x2="308.5" stroke="#923A3A"/>
<line x1="395.5" y1="14" x2="395.5" stroke="#923A3A"/>
<line x1="483.5" y1="14" x2="483.5" stroke="#923A3A"/>
<line x1="570.5" y1="14" x2="570.5" stroke="#923A3A"/>
<line x1="658.5" y1="14" x2="658.5" stroke="#923A3A"/>
<line x1="56.5" y1="14" x2="56.5" stroke="#923A3A"/>
<line x1="142.5" y1="14" x2="142.5" stroke="#923A3A"/>
<line x1="229.5" y1="14" x2="229.5" stroke="#923A3A"/>
<line x1="316.5" y1="14" x2="316.5" stroke="#923A3A"/>
<line x1="403.5" y1="14" x2="403.5" stroke="#923A3A"/>
<line x1="491.5" y1="14" x2="491.5" stroke="#923A3A"/>
<line x1="578.5" y1="14" x2="578.5" stroke="#923A3A"/>
<line x1="666.5" y1="14" x2="666.5" stroke="#923A3A"/>
<line x1="64.5" y1="14" x2="64.5" stroke="#923A3A"/>
<line x1="150.5" y1="14" x2="150.5" stroke="#923A3A"/>
<line x1="237.5" y1="14" x2="237.5" stroke="#923A3A"/>
<line x1="324.5" y1="14" x2="324.5" stroke="#923A3A"/>
<line x1="411.5" y1="14" x2="411.5" stroke="#923A3A"/>
<line x1="499.5" y1="14" x2="499.5" stroke="#923A3A"/>
<line x1="586.5" y1="14" x2="586.5" stroke="#923A3A"/>
<line x1="674.5" y1="14" x2="674.5" stroke="#923A3A"/>
<line x1="72.5" y1="14" x2="72.5" stroke="#923A3A"/>
<line x1="158.5" y1="14" x2="158.5" stroke="#923A3A"/>
<line x1="245.5" y1="14" x2="245.5" stroke="#923A3A"/>
<line x1="332.5" y1="14" x2="332.5" stroke="#923A3A"/>
<line x1="419.5" y1="14" x2="419.5" stroke="#923A3A"/>
<line x1="507.5" y1="14" x2="507.5" stroke="#923A3A"/>
<line x1="594.5" y1="14" x2="594.5" stroke="#923A3A"/>
<line x1="682.5" y1="14" x2="682.5" stroke="#923A3A"/>
<line x1="80.5" y1="14" x2="80.5" stroke="#923A3A"/>
<line x1="166.5" y1="14" x2="166.5" stroke="#923A3A"/>
<line x1="253.5" y1="14" x2="253.5" stroke="#923A3A"/>
<line x1="340.5" y1="14" x2="340.5" stroke="#923A3A"/>
<line x1="427.5" y1="14" x2="427.5" stroke="#923A3A"/>
<line x1="515.5" y1="14" x2="515.5" stroke="#923A3A"/>
<line x1="602.5" y1="14" x2="602.5" stroke="#923A3A"/>
<line x1="690.5" y1="14" x2="690.5" stroke="#923A3A"/>
</svg>
