<svg width="720" height="260" viewBox="0 0 720 260" fill="none" xmlns="http://www.w3.org/2000/svg">
<g clip-path="url(#clip0_13_49)">
<rect width="720" height="260" fill="url(#paint0_linear_13_49)"/>
<g opacity="0.4">
<path fill-rule="evenodd" clip-rule="evenodd" d="M110.194 36.9431C110.194 26.4811 118.675 18 129.137 18H224.174C234.636 18 243.117 26.4811 243.117 36.9431C243.117 38.8406 242.838 40.673 242.319 42.4013H262.702C273.164 42.4013 281.646 50.8825 281.646 61.3445C281.646 71.8065 273.164 80.2876 262.702 80.2876H257.391C258.533 82.7248 259.171 85.4451 259.171 88.3144C259.171 98.7764 250.689 107.258 240.227 107.258H233.482C233.311 117.571 224.897 125.88 214.542 125.88H188.342C192.018 129.335 194.314 134.242 194.314 139.686C194.314 140.446 194.27 141.196 194.182 141.933H259.492C269.954 141.933 278.435 150.414 278.435 160.876C278.435 171.338 269.954 179.819 259.492 179.819H236.215C238.535 182.963 239.906 186.85 239.906 191.057C239.906 201.519 231.425 210 220.963 210H131.706C121.244 210 112.763 201.519 112.763 191.057C112.763 186.85 114.134 182.963 116.454 179.819H46.9432C36.4812 179.819 28 171.338 28 160.876C28 150.414 36.4811 141.933 46.9431 141.933H67.3025C67.2154 141.196 67.1706 140.446 67.1706 139.686C67.1706 134.242 69.4666 129.335 73.1431 125.88H61.7124C51.2504 125.88 42.7693 117.398 42.7693 106.936C42.7693 96.4744 51.2504 87.9933 61.7124 87.9933H97.3538C97.3996 85.2422 98.0318 82.6337 99.1308 80.2876H98.3144C87.8524 80.2876 79.3713 71.8065 79.3713 61.3445C79.3713 50.8825 87.8524 42.4013 98.3144 42.4013H110.992C110.473 40.673 110.194 38.8406 110.194 36.9431Z" fill="white"/>
<path fill-rule="evenodd" clip-rule="evenodd" d="M110.194 36.9431C110.194 26.4811 118.675 18 129.137 18H224.174C234.636 18 243.117 26.4811 243.117 36.9431C243.117 38.8406 242.838 40.673 242.319 42.4013H262.702C273.164 42.4013 281.646 50.8825 281.646 61.3445C281.646 71.8065 273.164 80.2876 262.702 80.2876H257.391C258.533 82.7248 259.171 85.4451 259.171 88.3144C259.171 98.7764 250.689 107.258 240.227 107.258H233.482C233.311 117.571 224.897 125.88 214.542 125.88H188.342C192.018 129.335 194.314 134.242 194.314 139.686C194.314 140.446 194.27 141.196 194.182 141.933H259.492C269.954 141.933 278.435 150.414 278.435 160.876C278.435 171.338 269.954 179.819 259.492 179.819H236.215C238.535 182.963 239.906 186.85 239.906 191.057C239.906 201.519 231.425 210 220.963 210H131.706C121.244 210 112.763 201.519 112.763 191.057C112.763 186.85 114.134 182.963 116.454 179.819H46.9432C36.4812 179.819 28 171.338 28 160.876C28 150.414 36.4811 141.933 46.9431 141.933H67.3025C67.2154 141.196 67.1706 140.446 67.1706 139.686C67.1706 134.242 69.4666 129.335 73.1431 125.88H61.7124C51.2504 125.88 42.7693 117.398 42.7693 106.936C42.7693 96.4744 51.2504 87.9933 61.7124 87.9933H97.3538C97.3996 85.2422 98.0318 82.6337 99.1308 80.2876H98.3144C87.8524 80.2876 79.3713 71.8065 79.3713 61.3445C79.3713 50.8825 87.8524 42.4013 98.3144 42.4013H110.992C110.473 40.673 110.194 38.8406 110.194 36.9431Z" fill="white"/>
<path fill-rule="evenodd" clip-rule="evenodd" d="M110.194 36.9431C110.194 26.4811 118.675 18 129.137 18H224.174C234.636 18 243.117 26.4811 243.117 36.9431C243.117 38.8406 242.838 40.673 242.319 42.4013H262.702C273.164 42.4013 281.646 50.8825 281.646 61.3445C281.646 71.8065 273.164 80.2876 262.702 80.2876H257.391C258.533 82.7248 259.171 85.4451 259.171 88.3144C259.171 98.7764 250.689 107.258 240.227 107.258H233.482C233.311 117.571 224.897 125.88 214.542 125.88H188.342C192.018 129.335 194.314 134.242 194.314 139.686C194.314 140.446 194.27 141.196 194.182 141.933H259.492C269.954 141.933 278.435 150.414 278.435 160.876C278.435 171.338 269.954 179.819 259.492 179.819H236.215C238.535 182.963 239.906 186.85 239.906 191.057C239.906 201.519 231.425 210 220.963 210H131.706C121.244 210 112.763 201.519 112.763 191.057C112.763 186.85 114.134 182.963 116.454 179.819H46.9432C36.4812 179.819 28 171.338 28 160.876C28 150.414 36.4811 141.933 46.9431 141.933H67.3025C67.2154 141.196 67.1706 140.446 67.1706 139.686C67.1706 134.242 69.4666 129.335 73.1431 125.88H61.7124C51.2504 125.88 42.7693 117.398 42.7693 106.936C42.7693 96.4744 51.2504 87.9933 61.7124 87.9933H97.3538C97.3996 85.2422 98.0318 82.6337 99.1308 80.2876H98.3144C87.8524 80.2876 79.3713 71.8065 79.3713 61.3445C79.3713 50.8825 87.8524 42.4013 98.3144 42.4013H110.992C110.473 40.673 110.194 38.8406 110.194 36.9431Z" fill="white"/>
</g>
<g opacity="0.4">
<path fill-rule="evenodd" clip-rule="evenodd" d="M558.452 81.9431C558.452 71.4811 549.97 63 539.508 63H444.472C434.01 63 425.528 71.4811 425.528 81.9431C425.528 83.8406 425.807 85.673 426.327 87.4013H405.943C395.481 87.4013 387 95.8825 387 106.344C387 116.806 395.481 125.288 405.943 125.288H411.255C410.113 127.725 409.475 130.445 409.475 133.314C409.475 143.776 417.956 152.258 428.418 152.258H435.163C435.335 162.571 443.749 170.88 454.104 170.88H480.304C476.627 174.335 474.331 179.242 474.331 184.686C474.331 185.446 474.376 186.196 474.463 186.933H409.154C398.692 186.933 390.211 195.414 390.211 205.876C390.211 216.338 398.692 224.819 409.154 224.819H432.431C430.111 227.963 428.739 231.85 428.739 236.057C428.739 246.519 437.22 255 447.682 255H536.94C547.402 255 555.883 246.519 555.883 236.057C555.883 231.85 554.512 227.963 552.191 224.819H621.702C632.164 224.819 640.646 216.338 640.646 205.876C640.646 195.414 632.164 186.933 621.702 186.933H601.343C601.43 186.196 601.475 185.446 601.475 184.686C601.475 179.242 599.179 174.335 595.502 170.88H606.933C617.395 170.88 625.876 162.398 625.876 151.936C625.876 141.474 617.395 132.993 606.933 132.993H571.292C571.246 130.242 570.614 127.634 569.515 125.288H570.331C580.793 125.288 589.274 116.806 589.274 106.344C589.274 95.8825 580.793 87.4013 570.331 87.4013H557.653C558.173 85.673 558.452 83.8406 558.452 81.9431Z" fill="white"/>
<path fill-rule="evenodd" clip-rule="evenodd" d="M558.452 81.9431C558.452 71.4811 549.97 63 539.508 63H444.472C434.01 63 425.528 71.4811 425.528 81.9431C425.528 83.8406 425.807 85.673 426.327 87.4013H405.943C395.481 87.4013 387 95.8825 387 106.344C387 116.806 395.481 125.288 405.943 125.288H411.255C410.113 127.725 409.475 130.445 409.475 133.314C409.475 143.776 417.956 152.258 428.418 152.258H435.163C435.335 162.571 443.749 170.88 454.104 170.88H480.304C476.627 174.335 474.331 179.242 474.331 184.686C474.331 185.446 474.376 186.196 474.463 186.933H409.154C398.692 186.933 390.211 195.414 390.211 205.876C390.211 216.338 398.692 224.819 409.154 224.819H432.431C430.111 227.963 428.739 231.85 428.739 236.057C428.739 246.519 437.22 255 447.682 255H536.94C547.402 255 555.883 246.519 555.883 236.057C555.883 231.85 554.512 227.963 552.191 224.819H621.702C632.164 224.819 640.646 216.338 640.646 205.876C640.646 195.414 632.164 186.933 621.702 186.933H601.343C601.43 186.196 601.475 185.446 601.475 184.686C601.475 179.242 599.179 174.335 595.502 170.88H606.933C617.395 170.88 625.876 162.398 625.876 151.936C625.876 141.474 617.395 132.993 606.933 132.993H571.292C571.246 130.242 570.614 127.634 569.515 125.288H570.331C580.793 125.288 589.274 116.806 589.274 106.344C589.274 95.8825 580.793 87.4013 570.331 87.4013H557.653C558.173 85.673 558.452 83.8406 558.452 81.9431Z" fill="white"/>
<path fill-rule="evenodd" clip-rule="evenodd" d="M558.452 81.9431C558.452 71.4811 549.97 63 539.508 63H444.472C434.01 63 425.528 71.4811 425.528 81.9431C425.528 83.8406 425.807 85.673 426.327 87.4013H405.943C395.481 87.4013 387 95.8825 387 106.344C387 116.806 395.481 125.288 405.943 125.288H411.255C410.113 127.725 409.475 130.445 409.475 133.314C409.475 143.776 417.956 152.258 428.418 152.258H435.163C435.335 162.571 443.749 170.88 454.104 170.88H480.304C476.627 174.335 474.331 179.242 474.331 184.686C474.331 185.446 474.376 186.196 474.463 186.933H409.154C398.692 186.933 390.211 195.414 390.211 205.876C390.211 216.338 398.692 224.819 409.154 224.819H432.431C430.111 227.963 428.739 231.85 428.739 236.057C428.739 246.519 437.22 255 447.682 255H536.94C547.402 255 555.883 246.519 555.883 236.057C555.883 231.85 554.512 227.963 552.191 224.819H621.702C632.164 224.819 640.646 216.338 640.646 205.876C640.646 195.414 632.164 186.933 621.702 186.933H601.343C601.43 186.196 601.475 185.446 601.475 184.686C601.475 179.242 599.179 174.335 595.502 170.88H606.933C617.395 170.88 625.876 162.398 625.876 151.936C625.876 141.474 617.395 132.993 606.933 132.993H571.292C571.246 130.242 570.614 127.634 569.515 125.288H570.331C580.793 125.288 589.274 116.806 589.274 106.344C589.274 95.8825 580.793 87.4013 570.331 87.4013H557.653C558.173 85.673 558.452 83.8406 558.452 81.9431Z" fill="white"/>
</g>
</g>
<defs>
<linearGradient id="paint0_linear_13_49" x1="360" y1="0" x2="360" y2="260" gradientUnits="userSpaceOnUse">
<stop stop-color="#C0D6DF"/>
<stop offset="1" stop-color="white"/>
</linearGradient>
<clipPath id="clip0_13_49">
<rect width="720" height="260" fill="white"/>
</clipPath>
</defs>
</svg>
