<svg width="720" height="260" viewBox="0 0 720 260" fill="none" xmlns="http://www.w3.org/2000/svg">
<path fill-rule="evenodd" clip-rule="evenodd" d="M59.5807 200.096C61.2034 202.454 63.9212 204 67 204C71.9706 204 76 199.971 76 195C76 190.029 71.9706 186 67 186C66.2067 186 65.4374 186.103 64.7047 186.295C64.8974 185.563 65 184.793 65 184C65 179.029 60.9706 175 56 175C54.0206 175 52.1904 175.639 50.7045 176.722C48.5394 172.157 43.8884 169 38.5 169C31.0442 169 25 175.044 25 182.5C25 183.716 25.1607 184.894 25.4619 186.014C20.1893 186.294 16 190.658 16 196C16 201.523 20.4772 206 26 206C27.9192 206 29.7121 205.459 31.2347 204.522C33.9513 209.005 38.8759 212 44.5 212C51.8225 212 57.959 206.922 59.5807 200.096Z" fill="#99BA52"/>
<path fill-rule="evenodd" clip-rule="evenodd" d="M107.233 203.469C108.396 205.159 110.344 206.267 112.55 206.267C116.112 206.267 119 203.379 119 199.817C119 196.254 116.112 193.367 112.55 193.367C111.981 193.367 111.43 193.44 110.905 193.578C111.043 193.053 111.117 192.502 111.117 191.933C111.117 188.371 108.229 185.483 104.667 185.483C103.248 185.483 101.936 185.941 100.872 186.717C99.3199 183.446 95.9867 181.183 92.125 181.183C86.7816 181.183 82.45 185.515 82.45 190.858C82.45 191.73 82.5651 192.574 82.7811 193.377C79.0023 193.577 76 196.705 76 200.533C76 204.491 79.2086 207.7 83.1667 207.7C84.5421 207.7 85.827 207.313 86.9182 206.641C88.8651 209.853 92.3944 212 96.425 212C101.673 212 106.071 208.361 107.233 203.469Z" fill="#CAD353"/>
<path fill-rule="evenodd" clip-rule="evenodd" d="M107.233 203.469C108.396 205.159 110.344 206.267 112.55 206.267C116.112 206.267 119 203.379 119 199.817C119 196.254 116.112 193.367 112.55 193.367C111.981 193.367 111.43 193.44 110.905 193.578C111.043 193.053 111.117 192.502 111.117 191.933C111.117 188.371 108.229 185.483 104.667 185.483C103.248 185.483 101.936 185.941 100.872 186.717C99.3199 183.446 95.9867 181.183 92.125 181.183C86.7816 181.183 82.45 185.515 82.45 190.858C82.45 191.73 82.5651 192.574 82.7811 193.377C79.0023 193.577 76 196.705 76 200.533C76 204.491 79.2086 207.7 83.1667 207.7C84.5421 207.7 85.827 207.313 86.9182 206.641C88.8651 209.853 92.3944 212 96.425 212C101.673 212 106.071 208.361 107.233 203.469Z" fill="#CAD353"/>
<path fill-rule="evenodd" clip-rule="evenodd" d="M71.1643 201.356C70.2586 202.672 68.7417 203.535 67.0233 203.535C64.249 203.535 62 201.286 62 198.512C62 195.737 64.249 193.488 67.0233 193.488C67.466 193.488 67.8954 193.546 68.3044 193.653C68.1968 193.244 68.1395 192.815 68.1395 192.372C68.1395 189.598 70.3885 187.349 73.1628 187.349C74.2676 187.349 75.2891 187.705 76.1184 188.31C77.3269 185.762 79.9228 184 82.9302 184C87.0917 184 90.4651 187.373 90.4651 191.535C90.4651 192.213 90.3755 192.871 90.2073 193.496C93.1502 193.652 95.4884 196.088 95.4884 199.07C95.4884 202.152 92.9895 204.651 89.907 204.651C88.8358 204.651 87.8351 204.349 86.9853 203.826C85.469 206.328 82.7205 208 79.5814 208C75.4944 208 72.0694 205.166 71.1643 201.356Z" fill="#6D944B"/>
<path fill-rule="evenodd" clip-rule="evenodd" d="M515.419 200.096C513.797 202.454 511.079 204 508 204C503.029 204 499 199.971 499 195C499 190.029 503.029 186 508 186C508.793 186 509.563 186.103 510.295 186.295C510.103 185.563 510 184.793 510 184C510 179.029 514.029 175 519 175C520.979 175 522.81 175.639 524.295 176.722C526.461 172.157 531.112 169 536.5 169C543.956 169 550 175.044 550 182.5C550 183.716 549.839 184.894 549.538 186.014C554.811 186.294 559 190.658 559 196C559 201.523 554.523 206 549 206C547.081 206 545.288 205.459 543.765 204.522C541.049 209.005 536.124 212 530.5 212C523.178 212 517.041 206.922 515.419 200.096Z" fill="#99BA52"/>
<path fill-rule="evenodd" clip-rule="evenodd" d="M467.767 203.469C466.604 205.159 464.656 206.267 462.45 206.267C458.888 206.267 456 203.379 456 199.817C456 196.254 458.888 193.367 462.45 193.367C463.019 193.367 463.57 193.44 464.095 193.578C463.957 193.053 463.883 192.502 463.883 191.933C463.883 188.371 466.771 185.483 470.333 185.483C471.752 185.483 473.064 185.941 474.128 186.717C475.68 183.446 479.013 181.183 482.875 181.183C488.218 181.183 492.55 185.515 492.55 190.858C492.55 191.73 492.435 192.574 492.219 193.377C495.998 193.577 499 196.705 499 200.533C499 204.491 495.791 207.7 491.833 207.7C490.458 207.7 489.173 207.313 488.082 206.641C486.135 209.853 482.606 212 478.575 212C473.327 212 468.929 208.361 467.767 203.469Z" fill="#CAD353"/>
<path fill-rule="evenodd" clip-rule="evenodd" d="M467.767 203.469C466.604 205.159 464.656 206.267 462.45 206.267C458.888 206.267 456 203.379 456 199.817C456 196.254 458.888 193.367 462.45 193.367C463.019 193.367 463.57 193.44 464.095 193.578C463.957 193.053 463.883 192.502 463.883 191.933C463.883 188.371 466.771 185.483 470.333 185.483C471.752 185.483 473.064 185.941 474.128 186.717C475.68 183.446 479.013 181.183 482.875 181.183C488.218 181.183 492.55 185.515 492.55 190.858C492.55 191.73 492.435 192.574 492.219 193.377C495.998 193.577 499 196.705 499 200.533C499 204.491 495.791 207.7 491.833 207.7C490.458 207.7 489.173 207.313 488.082 206.641C486.135 209.853 482.606 212 478.575 212C473.327 212 468.929 208.361 467.767 203.469Z" fill="#CAD353"/>
<path fill-rule="evenodd" clip-rule="evenodd" d="M503.836 201.356C504.741 202.672 506.258 203.535 507.977 203.535C510.751 203.535 513 201.286 513 198.512C513 195.737 510.751 193.488 507.977 193.488C507.534 193.488 507.105 193.546 506.696 193.653C506.803 193.244 506.86 192.815 506.86 192.372C506.86 189.598 504.611 187.349 501.837 187.349C500.732 187.349 499.711 187.705 498.882 188.31C497.673 185.762 495.077 184 492.07 184C487.908 184 484.535 187.373 484.535 191.535C484.535 192.213 484.625 192.871 484.793 193.496C481.85 193.652 479.512 196.088 479.512 199.07C479.512 202.152 482.01 204.651 485.093 204.651C486.164 204.651 487.165 204.349 488.015 203.826C489.531 206.328 492.28 208 495.419 208C499.506 208 502.931 205.166 503.836 201.356Z" fill="#6D944B"/>
<path fill-rule="evenodd" clip-rule="evenodd" d="M221.164 201.356C220.259 202.672 218.742 203.535 217.023 203.535C214.249 203.535 212 201.286 212 198.512C212 195.737 214.249 193.488 217.023 193.488C217.466 193.488 217.895 193.546 218.304 193.653C218.197 193.244 218.14 192.815 218.14 192.372C218.14 189.598 220.389 187.349 223.163 187.349C224.268 187.349 225.289 187.705 226.118 188.31C227.327 185.762 229.923 184 232.93 184C237.092 184 240.465 187.373 240.465 191.535C240.465 192.213 240.375 192.871 240.207 193.496C243.15 193.652 245.488 196.088 245.488 199.07C245.488 202.152 242.99 204.651 239.907 204.651C238.836 204.651 237.835 204.349 236.985 203.826C235.469 206.328 232.72 208 229.581 208C225.494 208 222.069 205.166 221.164 201.356Z" fill="#6D944B"/>
<ellipse cx="103.282" cy="168.179" rx="13.2821" ry="19.7436" fill="#84B955"/>
<circle cx="128.769" cy="168.538" r="17.2308" fill="#94C25A"/>
<rect x="127.333" y="168.538" width="2.87179" height="34.4615" rx="1.4359" fill="#725E2B"/>
<path d="M128.769 181.821C132.239 180.504 139.179 176.579 139.179 171.41" stroke="#725E2B" stroke-width="3"/>
<path d="M128.769 176.436C126.855 175.71 123.026 173.544 123.026 170.692" stroke="#725E2B" stroke-width="3"/>
<rect width="2.87179" height="34.4615" rx="1.4359" transform="matrix(-1 0 0 1 106.154 168.538)" fill="#725E2B"/>
<path d="M104.718 178.949C101.248 177.632 94.3077 173.708 94.3077 168.538" stroke="#725E2B" stroke-width="3"/>
<ellipse rx="15.6538" ry="22.4342" transform="matrix(-1 0 0 1 433.346 165.434)" fill="#84B955"/>
<ellipse rx="20.3077" ry="19.5789" transform="matrix(-1 0 0 1 403.308 165.842)" fill="#94C25A"/>
<rect width="3.38462" height="39.1579" rx="1.69231" transform="matrix(-1 0 0 1 405 165.842)" fill="#725E2B"/>
<path d="M403.308 180.934C399.218 179.439 391.038 174.979 391.038 169.105" stroke="#725E2B" stroke-width="3"/>
<path d="M403.308 174.816C405.564 173.991 410.077 171.53 410.077 168.289" stroke="#725E2B" stroke-width="3"/>
<rect x="429.961" y="165.842" width="3.38462" height="39.1579" rx="1.69231" fill="#725E2B"/>
<path d="M431.654 177.671C435.744 176.175 443.923 171.716 443.923 165.842" stroke="#725E2B" stroke-width="3"/>
<rect y="200" width="720" height="60" fill="#7B633A"/>
<rect y="200" width="720" height="20" fill="#C6D050"/>
<rect x="58" y="200" width="181" height="20" rx="10" fill="#97B653"/>
<rect x="228" y="200" width="181" height="20" rx="10" fill="#C6D050"/>
<rect x="398" y="200" width="181" height="20" rx="10" fill="#B6BE80"/>
<path d="M539 210C539 204.477 543.477 200 549 200H720V220H549C543.477 220 539 215.523 539 210V210Z" fill="#97B554"/>
<line opacity="0.4" y1="240" x2="720" y2="240" stroke="white" stroke-width="2" stroke-dasharray="12 12"/>
</svg>
