<svg width="676" height="124" viewBox="0 0 676 124" fill="none" xmlns="http://www.w3.org/2000/svg">
<ellipse cx="278.5" cy="70" rx="13.5" ry="13" fill="#489142"/>
<ellipse cx="291.5" cy="62" rx="13.5" ry="13" fill="#489142"/>
<ellipse cx="278.5" cy="51" rx="13.5" ry="13" fill="#489142"/>
<ellipse cx="301.5" cy="77" rx="13.5" ry="13" fill="#489142"/>
<ellipse cx="301.5" cy="51" rx="13.5" ry="13" fill="#489142"/>
<rect x="137" y="90" width="7" height="34" fill="#924B35"/>
<rect x="286" y="78" width="7" height="34" fill="#924B35"/>
<rect x="649" y="54" width="7" height="34" fill="#924B35"/>
<rect x="21" y="35" width="7" height="34" fill="#924B35"/>
<rect x="480" y="69" width="7" height="34" fill="#924B35"/>
<ellipse cx="129.5" cy="84" rx="13.5" ry="13" fill="#489142"/>
<ellipse cx="142.5" cy="76" rx="13.5" ry="13" fill="#489142"/>
<ellipse cx="129.5" cy="65" rx="13.5" ry="13" fill="#489142"/>
<ellipse cx="152.5" cy="91" rx="13.5" ry="13" fill="#489142"/>
<ellipse cx="152.5" cy="65" rx="13.5" ry="13" fill="#489142"/>
<ellipse cx="13.5" cy="32" rx="13.5" ry="13" fill="#489142"/>
<ellipse cx="26.5" cy="24" rx="13.5" ry="13" fill="#489142"/>
<ellipse cx="13.5" cy="13" rx="13.5" ry="13" fill="#489142"/>
<ellipse cx="36.5" cy="39" rx="13.5" ry="13" fill="#489142"/>
<ellipse cx="36.5" cy="13" rx="13.5" ry="13" fill="#489142"/>
<ellipse cx="639.5" cy="47" rx="13.5" ry="13" fill="#489142"/>
<ellipse cx="652.5" cy="39" rx="13.5" ry="13" fill="#489142"/>
<ellipse cx="639.5" cy="28" rx="13.5" ry="13" fill="#489142"/>
<ellipse cx="662.5" cy="54" rx="13.5" ry="13" fill="#489142"/>
<ellipse cx="662.5" cy="28" rx="13.5" ry="13" fill="#489142"/>
<ellipse cx="491.628" cy="66.754" rx="13.5" ry="13" transform="rotate(-71.5412 491.628 66.754)" fill="#489142"/>
<ellipse cx="488.156" cy="51.8899" rx="13.5" ry="13" transform="rotate(-71.5412 488.156 51.8899)" fill="#489142"/>
<ellipse cx="473.606" cy="60.7382" rx="13.5" ry="13" transform="rotate(-71.5412 473.606 60.7382)" fill="#489142"/>
<ellipse cx="505.55" cy="47.1537" rx="13.5" ry="13" transform="rotate(-71.5412 505.55 47.1537)" fill="#489142"/>
<ellipse cx="480.888" cy="38.9215" rx="13.5" ry="13" transform="rotate(-71.5412 480.888 38.9215)" fill="#489142"/>
<ellipse cx="17" cy="22.5" rx="4" ry="3.5" fill="#CF0808"/>
<ellipse cx="33" cy="14.5" rx="4" ry="3.5" fill="#CF0808"/>
<ellipse cx="36" cy="40.5" rx="4" ry="3.5" fill="#CF0808"/>
<ellipse cx="126" cy="71.5" rx="4" ry="3.5" fill="#CF0808"/>
<ellipse cx="149" cy="90.5" rx="4" ry="3.5" fill="#CF0808"/>
<ellipse cx="153" cy="66.5" rx="4" ry="3.5" fill="#CF0808"/>
<ellipse cx="132" cy="85.5" rx="4" ry="3.5" fill="#CF0808"/>
<ellipse cx="279" cy="53.5" rx="4" ry="3.5" fill="#CF0808"/>
<ellipse cx="300" cy="75.5" rx="4" ry="3.5" fill="#CF0808"/>
<ellipse cx="302" cy="50.5" rx="4" ry="3.5" fill="#CF0808"/>
<ellipse cx="284" cy="64.5" rx="4" ry="3.5" fill="#CF0808"/>
<ellipse cx="483" cy="38.5" rx="4" ry="3.5" fill="#CF0808"/>
<ellipse cx="488" cy="64.5" rx="4" ry="3.5" fill="#CF0808"/>
<ellipse cx="504" cy="47.5" rx="4" ry="3.5" fill="#CF0808"/>
<ellipse cx="468" cy="60.5" rx="4" ry="3.5" fill="#CF0808"/>
<ellipse cx="639" cy="30.5" rx="4" ry="3.5" fill="#CF0808"/>
<ellipse cx="660" cy="53.5" rx="4" ry="3.5" fill="#CF0808"/>
<ellipse cx="660" cy="29.5" rx="4" ry="3.5" fill="#CF0808"/>
</svg>
