<svg width="179" height="66" viewBox="0 0 179 66" fill="none" xmlns="http://www.w3.org/2000/svg">
<rect width="179" height="66" fill="#D9D9D9"/>
<path d="M44.233 12.8182H45.7045L49.1648 21.2699H49.2841L52.7443 12.8182H54.2159V23H53.0625V15.2642H52.9631L49.7812 23H48.6676L45.4858 15.2642H45.3864V23H44.233V12.8182ZM59.6312 23.1591C58.9418 23.1591 58.3369 22.995 57.8166 22.6669C57.2995 22.3388 56.8952 21.8797 56.6035 21.2898C56.3152 20.6998 56.171 20.0104 56.171 19.2216C56.171 18.4261 56.3152 17.7318 56.6035 17.1385C56.8952 16.5452 57.2995 16.0845 57.8166 15.7564C58.3369 15.4283 58.9418 15.2642 59.6312 15.2642C60.3206 15.2642 60.9238 15.4283 61.4409 15.7564C61.9612 16.0845 62.3656 16.5452 62.6539 17.1385C62.9456 17.7318 63.0914 18.4261 63.0914 19.2216C63.0914 20.0104 62.9456 20.6998 62.6539 21.2898C62.3656 21.8797 61.9612 22.3388 61.4409 22.6669C60.9238 22.995 60.3206 23.1591 59.6312 23.1591ZM59.6312 22.1051C60.1549 22.1051 60.5858 21.9709 60.9238 21.7024C61.2619 21.4339 61.5121 21.081 61.6745 20.6435C61.8369 20.206 61.9181 19.732 61.9181 19.2216C61.9181 18.7112 61.8369 18.2356 61.6745 17.7947C61.5121 17.3539 61.2619 16.9976 60.9238 16.7259C60.5858 16.4541 60.1549 16.3182 59.6312 16.3182C59.1075 16.3182 58.6767 16.4541 58.3386 16.7259C58.0005 16.9976 57.7503 17.3539 57.5879 17.7947C57.4255 18.2356 57.3443 18.7112 57.3443 19.2216C57.3443 19.732 57.4255 20.206 57.5879 20.6435C57.7503 21.081 58.0005 21.4339 58.3386 21.7024C58.6767 21.9709 59.1075 22.1051 59.6312 22.1051ZM67.766 23.1591C67.1296 23.1591 66.5678 22.9983 66.0806 22.6768C65.5934 22.352 65.2122 21.8946 64.9371 21.3047C64.6621 20.7114 64.5245 20.0104 64.5245 19.2017C64.5245 18.3996 64.6621 17.7036 64.9371 17.1136C65.2122 16.5237 65.5951 16.0679 66.0856 15.7464C66.5761 15.425 67.1429 15.2642 67.7859 15.2642C68.283 15.2642 68.6758 15.3471 68.9641 15.5128C69.2558 15.6752 69.4779 15.8608 69.6303 16.0696C69.7861 16.2751 69.9071 16.4441 69.9933 16.5767H70.0927V12.8182H71.266V23H70.1325V21.8267H69.9933C69.9071 21.9659 69.7844 22.1416 69.6254 22.3537C69.4663 22.5625 69.2392 22.7498 68.9442 22.9155C68.6493 23.0779 68.2565 23.1591 67.766 23.1591ZM67.9251 22.1051C68.3957 22.1051 68.7934 21.9825 69.1183 21.7372C69.4431 21.4886 69.69 21.1456 69.859 20.7081C70.0281 20.2673 70.1126 19.7585 70.1126 19.1818C70.1126 18.6117 70.0297 18.1129 69.864 17.6854C69.6983 17.2545 69.453 16.9197 69.1282 16.6811C68.8034 16.4392 68.4023 16.3182 67.9251 16.3182C67.4279 16.3182 67.0136 16.4458 66.6822 16.701C66.354 16.9529 66.1071 17.2959 65.9414 17.7301C65.779 18.161 65.6978 18.6449 65.6978 19.1818C65.6978 19.7254 65.7807 20.2192 65.9464 20.6634C66.1154 21.1042 66.364 21.4555 66.6921 21.7173C67.0236 21.9759 67.4345 22.1051 67.9251 22.1051ZM76.7795 23.1591C76.0437 23.1591 75.409 22.9967 74.8754 22.6719C74.3451 22.3438 73.9357 21.8864 73.6474 21.2997C73.3623 20.7098 73.2198 20.0237 73.2198 19.2415C73.2198 18.4593 73.3623 17.7699 73.6474 17.1733C73.9357 16.5734 74.3368 16.1061 74.8505 15.7713C75.3675 15.4332 75.9708 15.2642 76.6602 15.2642C77.0579 15.2642 77.4506 15.3305 77.8384 15.4631C78.2262 15.5956 78.5792 15.8111 78.8974 16.1094C79.2156 16.4044 79.4691 16.7955 79.658 17.2827C79.8469 17.7699 79.9414 18.3698 79.9414 19.0824V19.5795H74.055V18.5653H78.7482C78.7482 18.1345 78.6621 17.75 78.4897 17.4119C78.3207 17.0739 78.0787 16.8071 77.7638 16.6115C77.4523 16.416 77.0844 16.3182 76.6602 16.3182C76.1928 16.3182 75.7885 16.4342 75.4471 16.6662C75.109 16.8949 74.8488 17.1932 74.6665 17.5611C74.4843 17.929 74.3931 18.3234 74.3931 18.7443V19.4205C74.3931 19.9972 74.4925 20.486 74.6914 20.8871C74.8936 21.2848 75.1737 21.5881 75.5316 21.7969C75.8896 22.0024 76.3055 22.1051 76.7795 22.1051C77.0877 22.1051 77.3661 22.062 77.6147 21.9759C77.8666 21.8864 78.0837 21.7538 78.266 21.5781C78.4483 21.3991 78.5891 21.1771 78.6886 20.9119L79.8221 21.2301C79.7028 21.6146 79.5022 21.9527 79.2205 22.2443C78.9388 22.5327 78.5908 22.758 78.1765 22.9205C77.7622 23.0795 77.2965 23.1591 76.7795 23.1591ZM82.8995 12.8182V23H81.7262V12.8182H82.8995ZM85.9036 23.0795C85.6583 23.0795 85.4479 22.9917 85.2722 22.8161C85.0965 22.6404 85.0087 22.4299 85.0087 22.1847C85.0087 21.9394 85.0965 21.7289 85.2722 21.5533C85.4479 21.3776 85.6583 21.2898 85.9036 21.2898C86.1489 21.2898 86.3593 21.3776 86.535 21.5533C86.7106 21.7289 86.7985 21.9394 86.7985 22.1847C86.7985 22.3471 86.757 22.4962 86.6742 22.6321C86.5946 22.768 86.4869 22.8774 86.351 22.9602C86.2185 23.0398 86.0693 23.0795 85.9036 23.0795ZM85.9036 17.4119C85.6583 17.4119 85.4479 17.3241 85.2722 17.1484C85.0965 16.9728 85.0087 16.7623 85.0087 16.517C85.0087 16.2718 85.0965 16.0613 85.2722 15.8857C85.4479 15.71 85.6583 15.6222 85.9036 15.6222C86.1489 15.6222 86.3593 15.71 86.535 15.8857C86.7106 16.0613 86.7985 16.2718 86.7985 16.517C86.7985 16.6795 86.757 16.8286 86.6742 16.9645C86.5946 17.1004 86.4869 17.2098 86.351 17.2926C86.2185 17.3722 86.0693 17.4119 85.9036 17.4119Z" fill="black"/>
</svg>
