<svg width="51" height="47" viewBox="0 0 51 47" fill="none" xmlns="http://www.w3.org/2000/svg">
<path d="M0 23.5C0 28.1479 1.49555 32.6913 4.29752 36.5559C7.0995 40.4204 11.0821 43.4325 15.7416 45.2112C20.4011 46.9898 25.5283 47.4552 30.4748 46.5484C35.4213 45.6417 39.965 43.4035 43.5312 40.117C47.0975 36.8305 49.5261 32.6432 50.51 28.0846C51.4939 23.5261 50.989 18.801 49.0589 14.5069C47.1289 10.2129 43.8605 6.54268 39.667 3.96046C35.4736 1.37825 30.5434 0 25.5 0C18.737 0 12.251 2.47589 7.46878 6.88299C2.6866 11.2901 0 17.2674 0 23.5V23.5ZM10.9286 21.8214H33.0589L22.8954 12.4097L25.5 10.0714L40.0714 23.5L25.5 36.9286L22.8954 34.5332L33.0589 25.1786H10.9286V21.8214Z" fill="black"/>
</svg>
