<svg width="177" height="66" viewBox="0 0 177 66" fill="none" xmlns="http://www.w3.org/2000/svg">
<rect width="177" height="66" fill="#D9D9D9"/>
<path d="M30.233 23V12.8182H33.6733C34.4688 12.8182 35.1217 12.9541 35.6321 13.2259C36.1425 13.4943 36.5204 13.8639 36.7656 14.3345C37.0109 14.8052 37.1335 15.3404 37.1335 15.9403C37.1335 16.5402 37.0109 17.0722 36.7656 17.5362C36.5204 18.0002 36.1442 18.3648 35.6371 18.63C35.13 18.8918 34.482 19.0227 33.6932 19.0227H30.9091V17.9091H33.6534C34.197 17.9091 34.6345 17.8295 34.9659 17.6705C35.3007 17.5114 35.5426 17.286 35.6918 16.9943C35.8442 16.6993 35.9205 16.348 35.9205 15.9403C35.9205 15.5327 35.8442 15.1764 35.6918 14.8714C35.5393 14.5665 35.2957 14.3312 34.9609 14.1655C34.6262 13.9964 34.1837 13.9119 33.6335 13.9119H31.4659V23H30.233ZM35.0256 18.4261L37.5312 23H36.0994L33.6335 18.4261H35.0256ZM42.1486 23.1591C41.4128 23.1591 40.7781 22.9967 40.2445 22.6719C39.7142 22.3438 39.3049 21.8864 39.0165 21.2997C38.7315 20.7098 38.589 20.0237 38.589 19.2415C38.589 18.4593 38.7315 17.7699 39.0165 17.1733C39.3049 16.5734 39.7059 16.1061 40.2196 15.7713C40.7367 15.4332 41.3399 15.2642 42.0293 15.2642C42.427 15.2642 42.8198 15.3305 43.2076 15.4631C43.5953 15.5956 43.9483 15.8111 44.2665 16.1094C44.5847 16.4044 44.8382 16.7955 45.0272 17.2827C45.2161 17.7699 45.3105 18.3698 45.3105 19.0824V19.5795H39.4242V18.5653H44.1174C44.1174 18.1345 44.0312 17.75 43.8588 17.4119C43.6898 17.0739 43.4479 16.8071 43.133 16.6115C42.8214 16.416 42.4535 16.3182 42.0293 16.3182C41.562 16.3182 41.1576 16.4342 40.8162 16.6662C40.4782 16.8949 40.218 17.1932 40.0357 17.5611C39.8534 17.929 39.7623 18.3234 39.7623 18.7443V19.4205C39.7623 19.9972 39.8617 20.486 40.0605 20.8871C40.2627 21.2848 40.5428 21.5881 40.9007 21.7969C41.2587 22.0024 41.6747 22.1051 42.1486 22.1051C42.4569 22.1051 42.7353 22.062 42.9838 21.9759C43.2357 21.8864 43.4528 21.7538 43.6351 21.5781C43.8174 21.3991 43.9583 21.1771 44.0577 20.9119L45.1912 21.2301C45.0719 21.6146 44.8714 21.9527 44.5897 22.2443C44.3079 22.5327 43.9599 22.758 43.5456 22.9205C43.1313 23.0795 42.6657 23.1591 42.1486 23.1591ZM50.4959 15.3636V16.358H46.3794V15.3636H50.4959ZM47.6124 23V14.3097C47.6124 13.8722 47.7151 13.5076 47.9206 13.2159C48.1261 12.9242 48.3929 12.7055 48.7211 12.5597C49.0492 12.4138 49.3955 12.3409 49.7601 12.3409C50.0485 12.3409 50.2838 12.3641 50.4661 12.4105C50.6484 12.4569 50.7843 12.5 50.8738 12.5398L50.5357 13.554C50.476 13.5341 50.3932 13.5092 50.2871 13.4794C50.1844 13.4496 50.0485 13.4347 49.8794 13.4347C49.4917 13.4347 49.2116 13.5324 49.0392 13.728C48.8702 13.9235 48.7857 14.2102 48.7857 14.5881V23H47.6124ZM55.0275 23.1591C54.2917 23.1591 53.657 22.9967 53.1234 22.6719C52.5931 22.3438 52.1838 21.8864 51.8954 21.2997C51.6104 20.7098 51.4679 20.0237 51.4679 19.2415C51.4679 18.4593 51.6104 17.7699 51.8954 17.1733C52.1838 16.5734 52.5848 16.1061 53.0985 15.7713C53.6156 15.4332 54.2188 15.2642 54.9082 15.2642C55.3059 15.2642 55.6987 15.3305 56.0865 15.4631C56.4743 15.5956 56.8272 15.8111 57.1454 16.1094C57.4636 16.4044 57.7172 16.7955 57.9061 17.2827C58.095 17.7699 58.1895 18.3698 58.1895 19.0824V19.5795H52.3031V18.5653H56.9963C56.9963 18.1345 56.9101 17.75 56.7377 17.4119C56.5687 17.0739 56.3268 16.8071 56.0119 16.6115C55.7003 16.416 55.3324 16.3182 54.9082 16.3182C54.4409 16.3182 54.0365 16.4342 53.6951 16.6662C53.3571 16.8949 53.0969 17.1932 52.9146 17.5611C52.7323 17.929 52.6412 18.3234 52.6412 18.7443V19.4205C52.6412 19.9972 52.7406 20.486 52.9395 20.8871C53.1416 21.2848 53.4217 21.5881 53.7797 21.7969C54.1376 22.0024 54.5536 22.1051 55.0275 22.1051C55.3358 22.1051 55.6142 22.062 55.8627 21.9759C56.1146 21.8864 56.3317 21.7538 56.514 21.5781C56.6963 21.3991 56.8372 21.1771 56.9366 20.9119L58.0701 21.2301C57.9508 21.6146 57.7503 21.9527 57.4686 22.2443C57.1868 22.5327 56.8388 22.758 56.4245 22.9205C56.0102 23.0795 55.5446 23.1591 55.0275 23.1591ZM59.9743 23V15.3636H61.1078V16.517H61.1873C61.3265 16.1392 61.5784 15.8326 61.943 15.5973C62.3076 15.362 62.7186 15.2443 63.176 15.2443C63.2621 15.2443 63.3699 15.246 63.4991 15.2493C63.6284 15.2526 63.7261 15.2576 63.7924 15.2642V16.4574C63.7527 16.4474 63.6615 16.4325 63.519 16.4126C63.3798 16.3894 63.2323 16.3778 63.0765 16.3778C62.7053 16.3778 62.3739 16.4557 62.0822 16.6115C61.7939 16.764 61.5652 16.9761 61.3961 17.2479C61.2304 17.5163 61.1475 17.8229 61.1475 18.1676V23H59.9743ZM68.1525 23.1591C67.4167 23.1591 66.782 22.9967 66.2484 22.6719C65.7181 22.3438 65.3088 21.8864 65.0204 21.2997C64.7354 20.7098 64.5929 20.0237 64.5929 19.2415C64.5929 18.4593 64.7354 17.7699 65.0204 17.1733C65.3088 16.5734 65.7098 16.1061 66.2235 15.7713C66.7406 15.4332 67.3438 15.2642 68.0332 15.2642C68.4309 15.2642 68.8237 15.3305 69.2115 15.4631C69.5993 15.5956 69.9522 15.8111 70.2704 16.1094C70.5886 16.4044 70.8422 16.7955 71.0311 17.2827C71.22 17.7699 71.3145 18.3698 71.3145 19.0824V19.5795H65.4281V18.5653H70.1213C70.1213 18.1345 70.0351 17.75 69.8627 17.4119C69.6937 17.0739 69.4518 16.8071 69.1369 16.6115C68.8253 16.416 68.4574 16.3182 68.0332 16.3182C67.5659 16.3182 67.1615 16.4342 66.8201 16.6662C66.4821 16.8949 66.2219 17.1932 66.0396 17.5611C65.8573 17.929 65.7662 18.3234 65.7662 18.7443V19.4205C65.7662 19.9972 65.8656 20.486 66.0645 20.8871C66.2666 21.2848 66.5467 21.5881 66.9047 21.7969C67.2626 22.0024 67.6786 22.1051 68.1525 22.1051C68.4608 22.1051 68.7392 22.062 68.9877 21.9759C69.2396 21.8864 69.4567 21.7538 69.639 21.5781C69.8213 21.3991 69.9622 21.1771 70.0616 20.9119L71.1951 21.2301C71.0758 21.6146 70.8753 21.9527 70.5936 22.2443C70.3118 22.5327 69.9638 22.758 69.5495 22.9205C69.1352 23.0795 68.6696 23.1591 68.1525 23.1591ZM74.2725 18.4062V23H73.0993V15.3636H74.2328V16.5568H74.3322C74.5112 16.169 74.783 15.8575 75.1475 15.6222C75.5121 15.3835 75.9828 15.2642 76.5595 15.2642C77.0765 15.2642 77.5289 15.3703 77.9167 15.5824C78.3045 15.7912 78.6061 16.1094 78.8216 16.5369C79.037 16.9612 79.1447 17.4981 79.1447 18.1477V23H77.9714V18.2273C77.9714 17.6274 77.8156 17.16 77.5041 16.8253C77.1925 16.4872 76.765 16.3182 76.2214 16.3182C75.8469 16.3182 75.5121 16.3994 75.2172 16.5618C74.9255 16.7242 74.6951 16.9612 74.5261 17.2727C74.3571 17.5843 74.2725 17.9621 74.2725 18.4062ZM84.391 23.1591C83.6751 23.1591 83.0586 22.9901 82.5415 22.652C82.0245 22.3139 81.6268 21.8482 81.3484 21.255C81.07 20.6617 80.9308 19.9839 80.9308 19.2216C80.9308 18.446 81.0733 17.7616 81.3583 17.1683C81.6467 16.5717 82.0477 16.1061 82.5614 15.7713C83.0785 15.4332 83.6817 15.2642 84.3711 15.2642C84.908 15.2642 85.3919 15.3636 85.8228 15.5625C86.2537 15.7614 86.6067 16.0398 86.8817 16.3977C87.1568 16.7557 87.3275 17.1733 87.3938 17.6506H86.2205C86.131 17.3026 85.9322 16.9943 85.6239 16.7259C85.319 16.4541 84.908 16.3182 84.391 16.3182C83.9336 16.3182 83.5326 16.4375 83.1879 16.6761C82.8465 16.9115 82.5797 17.2446 82.3874 17.6754C82.1985 18.103 82.104 18.6051 82.104 19.1818C82.104 19.7718 82.1969 20.2855 82.3825 20.723C82.5714 21.1605 82.8365 21.5002 83.1779 21.7422C83.5226 21.9841 83.927 22.1051 84.391 22.1051C84.6959 22.1051 84.9727 22.0521 85.2212 21.946C85.4698 21.84 85.6803 21.6875 85.8526 21.4886C86.025 21.2898 86.1476 21.0511 86.2205 20.7727H87.3938C87.3275 21.2235 87.1635 21.6295 86.9016 21.9908C86.6431 22.3487 86.3001 22.6338 85.8725 22.8459C85.4483 23.0547 84.9544 23.1591 84.391 23.1591ZM92.3107 23.1591C91.5749 23.1591 90.9402 22.9967 90.4066 22.6719C89.8763 22.3438 89.467 21.8864 89.1786 21.2997C88.8936 20.7098 88.7511 20.0237 88.7511 19.2415C88.7511 18.4593 88.8936 17.7699 89.1786 17.1733C89.467 16.5734 89.868 16.1061 90.3817 15.7713C90.8988 15.4332 91.502 15.2642 92.1914 15.2642C92.5891 15.2642 92.9819 15.3305 93.3697 15.4631C93.7575 15.5956 94.1104 15.8111 94.4286 16.1094C94.7468 16.4044 95.0004 16.7955 95.1893 17.2827C95.3782 17.7699 95.4727 18.3698 95.4727 19.0824V19.5795H89.5863V18.5653H94.2795C94.2795 18.1345 94.1933 17.75 94.021 17.4119C93.8519 17.0739 93.61 16.8071 93.2951 16.6115C92.9835 16.416 92.6156 16.3182 92.1914 16.3182C91.7241 16.3182 91.3197 16.4342 90.9783 16.6662C90.6403 16.8949 90.3801 17.1932 90.1978 17.5611C90.0155 17.929 89.9244 18.3234 89.9244 18.7443V19.4205C89.9244 19.9972 90.0238 20.486 90.2227 20.8871C90.4248 21.2848 90.7049 21.5881 91.0629 21.7969C91.4208 22.0024 91.8368 22.1051 92.3107 22.1051C92.619 22.1051 92.8974 22.062 93.146 21.9759C93.3978 21.8864 93.6149 21.7538 93.7972 21.5781C93.9795 21.3991 94.1204 21.1771 94.2198 20.9119L95.3533 21.2301C95.234 21.6146 95.0335 21.9527 94.7518 22.2443C94.4701 22.5327 94.122 22.758 93.7077 22.9205C93.2934 23.0795 92.8278 23.1591 92.3107 23.1591ZM98.1126 23.0795C97.8673 23.0795 97.6568 22.9917 97.4812 22.8161C97.3055 22.6404 97.2177 22.4299 97.2177 22.1847C97.2177 21.9394 97.3055 21.7289 97.4812 21.5533C97.6568 21.3776 97.8673 21.2898 98.1126 21.2898C98.3578 21.2898 98.5683 21.3776 98.744 21.5533C98.9196 21.7289 99.0075 21.9394 99.0075 22.1847C99.0075 22.3471 98.966 22.4962 98.8832 22.6321C98.8036 22.768 98.6959 22.8774 98.56 22.9602C98.4274 23.0398 98.2783 23.0795 98.1126 23.0795ZM98.1126 17.4119C97.8673 17.4119 97.6568 17.3241 97.4812 17.1484C97.3055 16.9728 97.2177 16.7623 97.2177 16.517C97.2177 16.2718 97.3055 16.0613 97.4812 15.8857C97.6568 15.71 97.8673 15.6222 98.1126 15.6222C98.3578 15.6222 98.5683 15.71 98.744 15.8857C98.9196 16.0613 99.0075 16.2718 99.0075 16.517C99.0075 16.6795 98.966 16.8286 98.8832 16.9645C98.8036 17.1004 98.6959 17.2098 98.56 17.2926C98.4274 17.3722 98.2783 17.4119 98.1126 17.4119Z" fill="black"/>
</svg>
